<?xml version="1.0" encoding="UTF-8"?>
<svg xmlns="http://www.w3.org/2000/svg" version="1.1" viewBox="0 0 500 500">
  <defs>
    <style>
      .cls-1 {
        fill: #12ff7d;
        stroke: #231f20;
        stroke-miterlimit: 10;
      }

      .cls-2 {
        fill: #b400ff;
      }
    </style>
  </defs>
  <!-- Generator: Adobe Illustrator 28.6.0, SVG Export Plug-In . SVG Version: 1.2.0 Build 709)  -->
  <g>
    <g id="Layer_1">
      <path class="cls-1" d="M41.3,279l2.8-12.9h9.5l2.9-13.6h-9.5l2.8-12.9h9.4l2.6-12.4h14.3l-2.6,12.4h10l2.6-12.4h14.3l-2.6,12.4h9.5l-2.8,12.9h-9.4l-2.9,13.6h9.5l-2.8,12.9h-9.4l-2.6,12.3h-14.3l2.6-12.3h-10l-2.6,12.3h-14.3l2.6-12.3h-9.5ZM67.8,266.1h10l2.9-13.6h-10l-2.9,13.6Z"/>
      <g>
        <path class="cls-1" d="M114.8,255.7v-8.9h4.8v-2.5c0-4.2,1.2-7.5,3.7-9.7.9-.9,2.2-1.6,3.8-2.1,1.6-.5,3.1-.7,4.7-.7,5,0,8.7,1.4,10.9,4.1l-5.4,6.5c-1.1-1.1-2.3-1.7-3.7-1.7s-1.7.3-2.3.8-.8,1.4-.8,2.4v2.8h7v8.9h-7v24.6h-10.9v-24.6h-4.8Z"/>
        <path class="cls-1" d="M139.3,263.4c0-2.7.5-5.2,1.4-7.4.9-2.2,2.2-4.1,3.8-5.6,1.6-1.5,3.4-2.6,5.5-3.4,2.1-.8,4.2-1.2,6.5-1.2,4.7,0,8.6,1.5,11.6,4.6,3,3,4.6,7.1,4.7,12.2,0,1.6,0,2.8,0,3.6h-22.8c.2,1.8.9,3.3,2.4,4.3,1.4,1.1,3.2,1.6,5.3,1.6,3.3,0,5.8-1.3,7.6-3.9l7.3,4.5c-2.9,5.5-8.1,8.3-15.4,8.3s-4.6-.4-6.7-1.1c-2.1-.8-4-1.8-5.7-3.3-1.7-1.4-3-3.3-4-5.5-1-2.3-1.5-4.8-1.5-7.7ZM150.2,259.6h11.7c0-1.6-.6-2.8-1.7-3.6s-2.5-1.2-4.1-1.2-2.8.4-4,1.2c-1.1.8-1.8,2-1.9,3.6Z"/>
        <path class="cls-1" d="M177.1,263.3c0-2.8.5-5.3,1.5-7.6,1-2.3,2.3-4.1,3.9-5.5s3.5-2.5,5.5-3.3c2-.8,4.1-1.1,6.2-1.1,4.3,0,7.8,1,10.6,3,2.8,2,4.6,4.7,5.4,7.9l-10.2,2.7c-.8-2.7-2.7-4-5.6-4s-3.2.7-4.5,2c-1.2,1.4-1.8,3.3-1.8,5.8s.6,4.6,1.9,6c1.2,1.4,2.7,2.1,4.5,2.1s2.8-.4,3.8-1.2c1-.8,1.7-1.9,2.2-3.2l9.8,3.4c-1.2,3.5-3.2,6.2-6.1,8-2.9,1.8-6.2,2.7-10.1,2.7s-4.3-.4-6.3-1.1c-2-.8-3.8-1.8-5.4-3.3-1.6-1.4-2.9-3.3-3.9-5.6s-1.5-4.9-1.5-7.7Z"/>
        <path class="cls-1" d="M215,237.3c0-1.7.5-3.1,1.4-4.3,1-1.2,2.3-1.7,4-1.7s3.2.6,4.4,1.7c1.2,1.2,1.8,2.6,1.8,4.3s-.6,3.1-1.8,4.3c-1.2,1.2-2.6,1.8-4.4,1.8s-3.1-.6-4-1.8c-1-1.2-1.4-2.6-1.4-4.3ZM215,280.3v-33.5h10.9v33.5h-10.9Z"/>
        <path class="cls-1" d="M231.4,255.7v-8.9h4.4v-8.7h10.9v8.7h7.4v8.9h-7.5v12.8c0,1.3.2,2.1.7,2.6.5.5,1.1.7,2,.7s1.8-.4,2.9-1.1l3.6,7.2c-2.4,1.9-5.4,2.9-9,2.9s-6.1-.9-8.1-2.7c-2-1.8-3.1-4.6-3.1-8.2v-14c0,0-4.3,0-4.3,0Z"/>
        <path class="cls-1" d="M257.3,263.4c0-2.7.5-5.2,1.4-7.4.9-2.2,2.2-4.1,3.8-5.6,1.6-1.5,3.4-2.6,5.5-3.4,2.1-.8,4.2-1.2,6.5-1.2,4.7,0,8.6,1.5,11.6,4.6,3,3,4.6,7.1,4.7,12.2,0,1.6,0,2.8,0,3.6h-22.8c.2,1.8.9,3.3,2.4,4.3s3.2,1.6,5.3,1.6c3.3,0,5.8-1.3,7.6-3.9l7.3,4.5c-2.9,5.5-8.1,8.3-15.4,8.3s-4.6-.4-6.7-1.1c-2.1-.8-4-1.8-5.7-3.3-1.7-1.4-3-3.3-4-5.5-1-2.3-1.5-4.8-1.5-7.7ZM268.2,259.6h11.7c0-1.6-.6-2.8-1.7-3.6s-2.5-1.2-4.1-1.2-2.8.4-4,1.2c-1.1.8-1.8,2-1.9,3.6Z"/>
        <path class="cls-1" d="M296.9,280.3v-48.1h10.9v23.8l10-9.3h13.7l-12.2,11.1,12.3,22.4h-12.4l-8.2-15.8-3.3,3v12.8h-10.9Z"/>
        <path class="cls-1" d="M335.7,280.3v-33.5h10.9v3.6c2.4-2.9,5.5-4.4,9.4-4.4s3.8.4,5.4,1.2c1.6.8,3,1.9,4,3.5,2.6-3.1,6.1-4.6,10.6-4.6s6.9,1.1,9.2,3.4c2.3,2.2,3.5,5.4,3.5,9.5v21.4h-10.9v-19.1c0-1.8-.4-3.2-1.3-4.1-.9-.9-2.1-1.4-3.5-1.4s-2.2.3-3.1,1c-.9.7-1.6,1.6-2.2,2.7v20.9h-10.9v-19.1c0-1.8-.5-3.2-1.4-4.1s-2.1-1.4-3.5-1.4c-2.3,0-4.1,1.2-5.3,3.7v20.9h-10.9Z"/>
        <path class="cls-1" d="M394.3,263.4c0-2.7.5-5.2,1.4-7.4.9-2.2,2.2-4.1,3.8-5.6,1.6-1.5,3.4-2.6,5.5-3.4s4.2-1.2,6.5-1.2c4.7,0,8.6,1.5,11.6,4.6,3,3,4.6,7.1,4.7,12.2,0,1.6,0,2.8,0,3.6h-22.8c.2,1.8.9,3.3,2.4,4.3,1.4,1.1,3.2,1.6,5.3,1.6,3.3,0,5.8-1.3,7.6-3.9l7.3,4.5c-2.9,5.5-8.1,8.3-15.4,8.3s-4.6-.4-6.7-1.1c-2.1-.8-4-1.8-5.7-3.3-1.7-1.4-3-3.3-4-5.5s-1.5-4.8-1.5-7.7ZM405.2,259.6h11.7c0-1.6-.6-2.8-1.7-3.6s-2.5-1.2-4.1-1.2-2.8.4-4,1.2c-1.1.8-1.8,2-1.9,3.6Z"/>
      </g>
      <g>
        <path class="cls-2" d="M246.4,308.2c0-1,.2-1.9.5-2.7.4-.8.8-1.5,1.4-2s1.2-.9,2-1.2,1.5-.4,2.2-.4c1.5,0,2.8.4,3.8,1.1,1,.7,1.6,1.7,1.9,2.8l-3.7,1c-.3-1-1-1.4-2-1.4s-1.2.2-1.6.7c-.4.5-.7,1.2-.7,2.1s.2,1.6.7,2.1c.4.5,1,.8,1.6.8s1-.1,1.4-.4c.4-.3.6-.7.8-1.2l3.5,1.2c-.4,1.3-1.1,2.2-2.2,2.9s-2.2,1-3.6,1-1.5-.1-2.3-.4c-.7-.3-1.4-.7-2-1.2s-1.1-1.2-1.4-2c-.3-.8-.5-1.8-.5-2.8Z"/>
        <path class="cls-2" d="M259.5,308.2c0-1,.2-1.9.5-2.7.4-.8.9-1.5,1.5-2,.6-.5,1.3-.9,2-1.2s1.5-.4,2.3-.4,1.6.1,2.3.4,1.4.7,2,1.2c.6.5,1.1,1.2,1.4,2,.4.8.5,1.7.5,2.8s-.1,1.6-.4,2.3-.6,1.3-1,1.8c-.4.5-.9.9-1.4,1.3-.5.4-1.1.6-1.7.8-.6.2-1.2.3-1.8.3s-1.6-.1-2.3-.4c-.7-.3-1.4-.7-2-1.2-.6-.5-1.1-1.2-1.4-2-.4-.8-.5-1.8-.5-2.8ZM263.5,308.2c0,.9.2,1.6.7,2.1.5.5,1,.8,1.7.8s1.2-.3,1.7-.8c.5-.5.7-1.2.7-2.1s-.2-1.6-.7-2.1c-.5-.5-1-.7-1.7-.7s-1.2.2-1.7.7c-.5.5-.7,1.2-.7,2.1Z"/>
        <path class="cls-2" d="M273.8,308.2c0-1,.2-1.9.5-2.8.3-.8.7-1.5,1.2-2s1.1-.9,1.7-1.1,1.3-.4,2-.4c1.1,0,2,.3,2.8.9v-5.9h3.9v17.3h-3.6v-1.1c-.9.8-1.9,1.3-3.1,1.3s-1.1,0-1.6-.2c-.5-.2-1-.4-1.5-.7s-.9-.7-1.2-1.2-.6-1.1-.8-1.8c-.2-.7-.3-1.5-.3-2.3ZM278.4,306.1c-.4.5-.7,1.2-.7,2.1s.2,1.6.7,2.1,1,.7,1.6.7,1.1-.2,1.5-.6c.4-.4.6-.9.6-1.5v-1.6c0-.6-.2-1-.6-1.4-.4-.4-.9-.6-1.5-.6s-1.2.2-1.6.7Z"/>
        <path class="cls-2" d="M288.2,308.2c0-1,.2-1.9.5-2.7s.8-1.5,1.4-2c.6-.5,1.2-.9,2-1.2s1.5-.4,2.3-.4c1.7,0,3.1.5,4.2,1.6,1.1,1.1,1.7,2.6,1.7,4.4,0,.6,0,1,0,1.3h-8.2c0,.6.3,1.2.9,1.6s1.1.6,1.9.6c1.2,0,2.1-.5,2.7-1.4l2.6,1.6c-1.1,2-2.9,3-5.5,3s-1.7-.1-2.4-.4c-.8-.3-1.4-.7-2-1.2-.6-.5-1.1-1.2-1.4-2s-.5-1.7-.5-2.8ZM292.1,306.8h4.2c0-.6-.2-1-.6-1.3-.4-.3-.9-.4-1.5-.4s-1,.1-1.4.4c-.4.3-.6.7-.7,1.3Z"/>
        <path class="cls-2" d="M307.7,298.8c0-.6.2-1.1.5-1.5.3-.4.8-.6,1.4-.6s1.1.2,1.6.6c.4.4.6.9.6,1.5s-.2,1.1-.6,1.6-.9.6-1.6.6-1.1-.2-1.4-.6c-.3-.4-.5-.9-.5-1.6ZM307.8,314.3v-12h3.9v12h-3.9Z"/>
        <path class="cls-2" d="M313.9,305.4v-3.2h1.7v-.9c0-1.5.4-2.7,1.3-3.5.3-.3.8-.6,1.3-.7.6-.2,1.1-.3,1.7-.3,1.8,0,3.1.5,3.9,1.5l-2,2.3c-.4-.4-.8-.6-1.3-.6s-.6,0-.8.3-.3.5-.3.9v1h2.5v3.2h-2.5v8.8h-3.9v-8.8h-1.7Z"/>
        <path class="cls-2" d="M327.9,302.2h4l2.3,5.7,2.2-5.7h3.8l-6.9,16.6h-3.8l2.7-6.8-4.3-9.9Z"/>
        <path class="cls-2" d="M340.5,308.2c0-1,.2-1.9.5-2.7.4-.8.9-1.5,1.5-2,.6-.5,1.3-.9,2-1.2s1.5-.4,2.3-.4,1.6.1,2.3.4,1.4.7,2,1.2c.6.5,1.1,1.2,1.4,2,.4.8.5,1.7.5,2.8s-.1,1.6-.4,2.3-.6,1.3-1,1.8c-.4.5-.9.9-1.4,1.3-.5.4-1.1.6-1.7.8-.6.2-1.2.3-1.8.3s-1.6-.1-2.3-.4c-.7-.3-1.4-.7-2-1.2-.6-.5-1.1-1.2-1.4-2-.4-.8-.5-1.8-.5-2.8ZM344.5,308.2c0,.9.2,1.6.7,2.1.5.5,1,.8,1.7.8s1.2-.3,1.7-.8c.5-.5.7-1.2.7-2.1s-.2-1.6-.7-2.1c-.5-.5-1-.7-1.7-.7s-1.2.2-1.7.7c-.5.5-.7,1.2-.7,2.1Z"/>
        <path class="cls-2" d="M355.2,309.9v-7.7h3.9v6.8c0,.7.2,1.2.5,1.5.3.3.8.5,1.3.5s.7-.1,1.1-.3c.3-.2.6-.5.8-.9v-7.6h3.9v12h-3.9v-1.4c-.8,1.1-2,1.6-3.5,1.6s-2.3-.4-3-1.2-1.1-1.9-1.1-3.4Z"/>
        <path class="cls-2" d="M375.2,314.3v-12h3.9v1.3c.8-1.1,2-1.6,3.5-1.6s2.3.4,3.1,1.2c.8.8,1.2,2,1.2,3.5v7.6h-3.9v-6.8c0-1.4-.6-2.1-1.8-2.1s-.8.1-1.1.3c-.4.2-.6.5-.8,1v7.6h-3.9Z"/>
        <path class="cls-2" d="M388.8,308.2c0-1,.2-1.9.5-2.7s.8-1.5,1.4-2c.6-.5,1.2-.9,2-1.2s1.5-.4,2.3-.4c1.7,0,3.1.5,4.2,1.6,1.1,1.1,1.7,2.6,1.7,4.4,0,.6,0,1,0,1.3h-8.2c0,.6.3,1.2.9,1.6s1.1.6,1.9.6c1.2,0,2.1-.5,2.7-1.4l2.6,1.6c-1.1,2-2.9,3-5.5,3s-1.7-.1-2.4-.4c-.8-.3-1.4-.7-2-1.2-.6-.5-1.1-1.2-1.4-2s-.5-1.7-.5-2.8ZM392.7,306.8h4.2c0-.6-.2-1-.6-1.3-.4-.3-.9-.4-1.5-.4s-1,.1-1.4.4c-.4.3-.6.7-.7,1.3Z"/>
        <path class="cls-2" d="M402.4,308.2c0-1,.2-1.9.5-2.7s.8-1.5,1.4-2c.6-.5,1.2-.9,2-1.2s1.5-.4,2.3-.4c1.7,0,3.1.5,4.2,1.6,1.1,1.1,1.7,2.6,1.7,4.4,0,.6,0,1,0,1.3h-8.2c0,.6.3,1.2.9,1.6s1.1.6,1.9.6c1.2,0,2.1-.5,2.7-1.4l2.6,1.6c-1.1,2-2.9,3-5.5,3s-1.7-.1-2.4-.4c-.8-.3-1.4-.7-2-1.2-.6-.5-1.1-1.2-1.4-2s-.5-1.7-.5-2.8ZM406.4,306.8h4.2c0-.6-.2-1-.6-1.3-.4-.3-.9-.4-1.5-.4s-1,.1-1.4.4c-.4.3-.6.7-.7,1.3Z"/>
        <path class="cls-2" d="M416.2,308.2c0-1,.2-1.9.5-2.8.3-.8.7-1.5,1.2-2s1.1-.9,1.7-1.1,1.3-.4,2-.4c1.1,0,2,.3,2.8.9v-5.9h3.9v17.3h-3.6v-1.1c-.9.8-1.9,1.3-3.1,1.3s-1.1,0-1.6-.2c-.5-.2-1-.4-1.5-.7s-.9-.7-1.2-1.2-.6-1.1-.8-1.8c-.2-.7-.3-1.5-.3-2.3ZM420.8,306.1c-.4.5-.7,1.2-.7,2.1s.2,1.6.7,2.1,1,.7,1.6.7,1.1-.2,1.5-.6c.4-.4.6-.9.6-1.5v-1.6c0-.6-.2-1-.6-1.4-.4-.4-.9-.6-1.5-.6s-1.2.2-1.6.7Z"/>
      </g>
      <g>
        <path class="cls-2" d="M276.1,332c0-.7.1-1.4.4-2,.3-.6.6-1.1,1-1.4.4-.4.9-.6,1.4-.8.5-.2,1.1-.3,1.6-.3,1.1,0,2,.3,2.7.8.7.5,1.2,1.2,1.4,2l-2.6.7c-.2-.7-.7-1-1.4-1s-.8.2-1.2.5c-.3.3-.5.8-.5,1.5s.2,1.2.5,1.5c.3.4.7.5,1.2.5s.7-.1,1-.3c.3-.2.4-.5.6-.8l2.5.9c-.3.9-.8,1.6-1.6,2.1s-1.6.7-2.6.7-1.1,0-1.6-.3c-.5-.2-1-.5-1.4-.8-.4-.4-.8-.8-1-1.4s-.4-1.3-.4-2Z"/>
        <path class="cls-2" d="M285.5,332c0-.7.1-1.4.4-2,.3-.6.6-1.1,1-1.4.4-.4.9-.6,1.5-.8.5-.2,1.1-.3,1.6-.3s1.1,0,1.7.3c.5.2,1,.5,1.4.8.4.4.8.8,1,1.4.3.6.4,1.2.4,2s0,1.1-.3,1.6c-.2.5-.4.9-.7,1.3s-.6.7-1,.9c-.4.3-.8.4-1.2.6s-.9.2-1.3.2-1.1,0-1.7-.3c-.5-.2-1-.5-1.4-.8-.4-.4-.8-.8-1-1.4-.3-.6-.4-1.3-.4-2ZM288.4,332c0,.7.2,1.2.5,1.5.3.4.7.5,1.2.5s.9-.2,1.2-.5c.3-.4.5-.9.5-1.5s-.2-1.1-.5-1.5c-.3-.4-.7-.5-1.2-.5s-.9.2-1.2.5-.5.9-.5,1.5Z"/>
        <path class="cls-2" d="M295.8,332c0-.7.1-1.4.3-2,.2-.6.5-1.1.9-1.4s.8-.6,1.2-.8c.5-.2.9-.3,1.4-.3.8,0,1.5.2,2,.6v-4.2h2.8v12.4h-2.6v-.8c-.6.6-1.4.9-2.2.9s-.8,0-1.2-.2c-.4-.1-.7-.3-1.1-.5s-.6-.5-.9-.9c-.3-.3-.5-.8-.6-1.3s-.2-1-.2-1.6ZM299.1,330.5c-.3.3-.5.8-.5,1.5s.2,1.2.5,1.5.7.5,1.2.5.8-.1,1.1-.4.4-.6.4-1v-1.1c0-.4-.2-.7-.4-1-.3-.3-.6-.4-1.1-.4s-.8.2-1.2.5Z"/>
        <path class="cls-2" d="M306.1,332c0-.7.1-1.3.4-1.9.2-.6.6-1.1,1-1.4.4-.4.9-.7,1.4-.9.5-.2,1.1-.3,1.7-.3,1.2,0,2.2.4,3,1.2.8.8,1.2,1.8,1.2,3.1,0,.4,0,.7,0,.9h-5.9c0,.5.2.8.6,1.1.4.3.8.4,1.4.4.8,0,1.5-.3,2-1l1.9,1.2c-.8,1.4-2.1,2.1-4,2.1s-1.2,0-1.7-.3c-.5-.2-1-.5-1.5-.8-.4-.4-.8-.8-1-1.4-.3-.6-.4-1.3-.4-2ZM308.9,331h3c0-.4-.2-.7-.4-.9s-.6-.3-1.1-.3-.7.1-1,.3c-.3.2-.5.5-.5.9Z"/>
        <path class="cls-2" d="M316.3,336.3v-8.6h2.8v1c.6-.8,1.4-1.2,2.5-1.2s1.6.3,2.2.9c.6.6.8,1.4.8,2.5v5.5h-2.8v-4.9c0-1-.4-1.5-1.3-1.5s-.6,0-.8.2-.5.4-.6.7v5.4h-2.8Z"/>
        <path class="cls-2" d="M325.9,328.4l.7-4.1h2.3l-.9,4.1h-2.1Z"/>
        <path class="cls-2" d="M329.9,330v-2.3h1.1v-2.2h2.8v2.2h1.9v2.3h-1.9v3.3c0,.3,0,.6.2.7s.3.2.5.2.5,0,.8-.3l.9,1.9c-.6.5-1.4.7-2.3.7s-1.6-.2-2.1-.7c-.5-.5-.8-1.2-.8-2.1v-3.6s-1.1,0-1.1,0Z"/>
        <path class="cls-2" d="M341.1,325.2c0-.4.1-.8.4-1.1.2-.3.6-.5,1-.5s.8.2,1.1.5c.3.3.5.7.5,1.1s-.2.8-.5,1.1-.7.5-1.1.5-.8-.2-1-.5c-.2-.3-.4-.7-.4-1.1ZM341.1,336.3v-8.6h2.8v8.6h-2.8Z"/>
        <path class="cls-2" d="M345.5,330v-2.3h1.2v-.6c0-1.1.3-1.9,1-2.5.2-.2.6-.4,1-.5s.8-.2,1.2-.2c1.3,0,2.2.3,2.8,1l-1.4,1.7c-.3-.3-.6-.4-1-.4s-.4,0-.6.2c-.1.1-.2.4-.2.6v.7h1.8v2.3h-1.8v6.3h-2.8v-6.3h-1.2Z"/>
        <path class="cls-2" d="M355.5,327.7h2.8l1.7,4.1,1.6-4.1h2.7l-5,11.9h-2.7l2-4.9-3.1-7.1Z"/>
        <path class="cls-2" d="M364.6,332c0-.7.1-1.4.4-2,.3-.6.6-1.1,1-1.4.4-.4.9-.6,1.5-.8.5-.2,1.1-.3,1.6-.3s1.1,0,1.7.3c.5.2,1,.5,1.4.8.4.4.8.8,1,1.4.3.6.4,1.2.4,2s0,1.1-.3,1.6c-.2.5-.4.9-.7,1.3s-.6.7-1,.9c-.4.3-.8.4-1.2.6s-.9.2-1.3.2-1.1,0-1.7-.3c-.5-.2-1-.5-1.4-.8-.4-.4-.8-.8-1-1.4-.3-.6-.4-1.3-.4-2ZM367.4,332c0,.7.2,1.2.5,1.5.3.4.7.5,1.2.5s.9-.2,1.2-.5c.3-.4.5-.9.5-1.5s-.2-1.1-.5-1.5c-.3-.4-.7-.5-1.2-.5s-.9.2-1.2.5-.5.9-.5,1.5Z"/>
        <path class="cls-2" d="M375.1,333.2v-5.5h2.8v4.9c0,.5.1.9.4,1.1s.6.3.9.3.5,0,.8-.2c.2-.2.4-.4.6-.7v-5.4h2.8v8.6h-2.8v-1c-.6.8-1.4,1.2-2.5,1.2s-1.6-.3-2.2-.8c-.5-.6-.8-1.4-.8-2.5Z"/>
        <path class="cls-2" d="M389,332c0-.7.1-1.4.3-2,.2-.6.5-1.1.9-1.4s.8-.6,1.2-.8c.5-.2.9-.3,1.4-.3.8,0,1.5.2,2,.6v-4.2h2.8v12.4h-2.6v-.8c-.6.6-1.4.9-2.2.9s-.8,0-1.2-.2c-.4-.1-.7-.3-1.1-.5s-.6-.5-.9-.9c-.3-.3-.5-.8-.6-1.3s-.2-1-.2-1.6ZM392.3,330.5c-.3.3-.5.8-.5,1.5s.2,1.2.5,1.5.7.5,1.2.5.8-.1,1.1-.4.4-.6.4-1v-1.1c0-.4-.2-.7-.4-1-.3-.3-.6-.4-1.1-.4s-.8.2-1.2.5Z"/>
        <path class="cls-2" d="M399.3,332c0-.7.1-1.4.4-2,.3-.6.6-1.1,1-1.4.4-.4.9-.6,1.5-.8.5-.2,1.1-.3,1.6-.3s1.1,0,1.7.3c.5.2,1,.5,1.4.8.4.4.8.8,1,1.4.3.6.4,1.2.4,2s0,1.1-.3,1.6c-.2.5-.4.9-.7,1.3s-.6.7-1,.9c-.4.3-.8.4-1.2.6s-.9.2-1.3.2-1.1,0-1.7-.3c-.5-.2-1-.5-1.4-.8-.4-.4-.8-.8-1-1.4-.3-.6-.4-1.3-.4-2ZM402.1,332c0,.7.2,1.2.5,1.5.3.4.7.5,1.2.5s.9-.2,1.2-.5c.3-.4.5-.9.5-1.5s-.2-1.1-.5-1.5c-.3-.4-.7-.5-1.2-.5s-.9.2-1.2.5-.5.9-.5,1.5Z"/>
        <path class="cls-2" d="M409.9,336.3v-8.6h2.8v1c.6-.8,1.4-1.2,2.5-1.2s1.6.3,2.2.9c.6.6.8,1.4.8,2.5v5.5h-2.8v-4.9c0-1-.4-1.5-1.3-1.5s-.6,0-.8.2-.5.4-.6.7v5.4h-2.8Z"/>
        <path class="cls-2" d="M419.5,328.4l.7-4.1h2.3l-.9,4.1h-2.1Z"/>
        <path class="cls-2" d="M423.5,330v-2.3h1.1v-2.2h2.8v2.2h1.9v2.3h-1.9v3.3c0,.3,0,.6.2.7s.3.2.5.2.5,0,.8-.3l.9,1.9c-.6.5-1.4.7-2.3.7s-1.6-.2-2.1-.7c-.5-.5-.8-1.2-.8-2.1v-3.6s-1.1,0-1.1,0Z"/>
      </g>
      <g>
        <path class="cls-2" d="M330.4,356.8v-10.4h2.3v10.4h-2.3Z"/>
        <path class="cls-2" d="M334.3,347.5c0-.4.1-.7.3-.9.2-.3.5-.4.9-.4s.7.1.9.4c.3.3.4.6.4.9s-.1.7-.4.9c-.3.3-.6.4-.9.4s-.7-.1-.9-.4c-.2-.3-.3-.6-.3-.9ZM334.3,356.8v-7.2h2.3v7.2h-2.3Z"/>
        <path class="cls-2" d="M337.9,351.5v-1.9h1v-.5c0-.9.3-1.6.8-2.1.2-.2.5-.3.8-.4.3-.1.7-.2,1-.2,1.1,0,1.9.3,2.4.9l-1.2,1.4c-.2-.2-.5-.4-.8-.4s-.4,0-.5.2c-.1.1-.2.3-.2.5v.6h1.5v1.9h-1.5v5.3h-2.3v-5.3h-1Z"/>
        <path class="cls-2" d="M343.2,353.1c0-.6.1-1.1.3-1.6.2-.5.5-.9.8-1.2.3-.3.7-.6,1.2-.7.4-.2.9-.3,1.4-.3,1,0,1.8.3,2.5,1,.7.7,1,1.5,1,2.6,0,.3,0,.6,0,.8h-4.9c0,.4.2.7.5.9.3.2.7.4,1.1.4.7,0,1.3-.3,1.6-.8l1.6,1c-.6,1.2-1.7,1.8-3.3,1.8s-1,0-1.5-.2-.9-.4-1.2-.7c-.4-.3-.6-.7-.9-1.2-.2-.5-.3-1-.3-1.7ZM345.6,352.3h2.5c0-.3-.1-.6-.4-.8-.2-.2-.5-.3-.9-.3s-.6,0-.9.3c-.2.2-.4.4-.4.8Z"/>
        <path class="cls-2" d="M354.9,347.5c0-.4.1-.7.3-.9.2-.3.5-.4.9-.4s.7.1.9.4c.3.3.4.6.4.9s-.1.7-.4.9c-.3.3-.6.4-.9.4s-.7-.1-.9-.4c-.2-.3-.3-.6-.3-.9ZM354.9,356.8v-7.2h2.3v7.2h-2.3Z"/>
        <path class="cls-2" d="M358.6,354.8l2-.5c.2.7.6,1,1.3,1s.5,0,.7-.1c.2,0,.3-.2.3-.4s-.1-.3-.3-.4-.6-.2-1.1-.3c-.8-.1-1.4-.4-1.9-.7s-.7-.9-.7-1.5.3-1.3.9-1.7,1.4-.6,2.3-.6,1.6.2,2.1.5c.5.4.8.8,1,1.5l-2,.5c-.1-.5-.5-.8-1.1-.8s-.5,0-.6.2-.2.2-.2.4.1.3.3.4.6.2,1.1.2c1.7.2,2.6,1,2.6,2.3s-.3,1.3-.9,1.7c-.6.4-1.4.6-2.4.6-1.8,0-2.9-.7-3.3-2.1Z"/>
        <path class="cls-2" d="M368.8,351.5v-1.9h1v-1.9h2.3v1.9h1.6v1.9h-1.6v2.8c0,.3,0,.5.2.6.1.1.2.2.4.2s.4,0,.6-.2l.8,1.5c-.5.4-1.2.6-1.9.6s-1.3-.2-1.7-.6-.7-1-.7-1.8v-3s-.9,0-.9,0Z"/>
        <path class="cls-2" d="M374.4,353.1c0-.6.1-1.1.3-1.6.2-.5.5-.9.9-1.2.4-.3.8-.5,1.2-.7.4-.2.9-.2,1.4-.2s1,0,1.4.2c.4.2.8.4,1.2.7.4.3.6.7.9,1.2.2.5.3,1,.3,1.6s0,.9-.2,1.4c-.1.4-.3.8-.6,1.1-.2.3-.5.5-.9.8-.3.2-.7.4-1,.5-.4.1-.7.2-1.1.2s-1,0-1.4-.2-.8-.4-1.2-.7c-.4-.3-.6-.7-.9-1.2-.2-.5-.3-1-.3-1.7ZM376.8,353.1c0,.5.1,1,.4,1.3s.6.5,1,.5.7-.2,1-.5c.3-.3.4-.7.4-1.3s-.1-1-.4-1.2c-.3-.3-.6-.4-1-.4s-.7.1-1,.4-.4.7-.4,1.2Z"/>
        <path class="cls-2" d="M382.9,353.1c0-.6.1-1.1.3-1.6.2-.5.5-.9.9-1.2.4-.3.8-.5,1.2-.7.4-.2.9-.2,1.4-.2s1,0,1.4.2c.4.2.8.4,1.2.7.4.3.6.7.9,1.2.2.5.3,1,.3,1.6s0,.9-.2,1.4c-.1.4-.3.8-.6,1.1-.2.3-.5.5-.9.8-.3.2-.7.4-1,.5-.4.1-.7.2-1.1.2s-1,0-1.4-.2-.8-.4-1.2-.7c-.4-.3-.6-.7-.9-1.2-.2-.5-.3-1-.3-1.7ZM385.3,353.1c0,.5.1,1,.4,1.3s.6.5,1,.5.7-.2,1-.5c.3-.3.4-.7.4-1.3s-.1-1-.4-1.2c-.3-.3-.6-.4-1-.4s-.7.1-1,.4-.4.7-.4,1.2Z"/>
        <path class="cls-2" d="M394.5,354.8l2-.5c.2.7.6,1,1.3,1s.5,0,.7-.1c.2,0,.3-.2.3-.4s-.1-.3-.3-.4-.6-.2-1.1-.3c-.8-.1-1.4-.4-1.9-.7s-.7-.9-.7-1.5.3-1.3.9-1.7,1.4-.6,2.3-.6,1.6.2,2.1.5c.5.4.8.8,1,1.5l-2,.5c-.1-.5-.5-.8-1.1-.8s-.5,0-.6.2-.2.2-.2.4.1.3.3.4.6.2,1.1.2c1.7.2,2.6,1,2.6,2.3s-.3,1.3-.9,1.7c-.6.4-1.4.6-2.4.6-1.8,0-2.9-.7-3.3-2.1Z"/>
        <path class="cls-2" d="M402.1,356.8v-10.4h2.3v3.9c.5-.6,1.2-1,2.1-1s1.4.2,1.8.7c.5.5.7,1.2.7,2.1v4.6h-2.3v-4.1c0-.8-.4-1.2-1.1-1.2s-.5,0-.7.2-.4.3-.5.6v4.5h-2.3Z"/>
        <path class="cls-2" d="M410.3,353.1c0-.6.1-1.1.3-1.6.2-.5.5-.9.9-1.2.4-.3.8-.5,1.2-.7.4-.2.9-.2,1.4-.2s1,0,1.4.2c.4.2.8.4,1.2.7.4.3.6.7.9,1.2.2.5.3,1,.3,1.6s0,.9-.2,1.4c-.1.4-.3.8-.6,1.1-.2.3-.5.5-.9.8-.3.2-.7.4-1,.5-.4.1-.7.2-1.1.2s-1,0-1.4-.2-.8-.4-1.2-.7c-.4-.3-.6-.7-.9-1.2-.2-.5-.3-1-.3-1.7ZM412.6,353.1c0,.5.1,1,.4,1.3s.6.5,1,.5.7-.2,1-.5c.3-.3.4-.7.4-1.3s-.1-1-.4-1.2c-.3-.3-.6-.4-1-.4s-.7.1-1,.4-.4.7-.4,1.2Z"/>
        <path class="cls-2" d="M419.1,356.8v-7.2h2.3v.8c.2-.3.4-.5.7-.7.3-.2.6-.3.9-.3.5,0,.9.1,1.3.3l-.7,2c-.3-.2-.6-.3-1-.3s-.4,0-.6.2-.3.3-.5.4v4.6h-2.3Z"/>
        <path class="cls-2" d="M424.5,351.5v-1.9h1v-1.9h2.3v1.9h1.6v1.9h-1.6v2.8c0,.3,0,.5.2.6.1.1.2.2.4.2s.4,0,.6-.2l.8,1.5c-.5.4-1.2.6-1.9.6s-1.3-.2-1.7-.6-.7-1-.7-1.8v-3s-.9,0-.9,0Z"/>
      </g>
      <g>
        <path class="cls-2" d="M366.6,375.4c0-.7.4-1.2,1.2-1.5-.3-.2-.5-.5-.5-.9s.2-.8.7-1c-.4-.2-.6-.5-.8-.9s-.3-.8-.3-1.2.1-1,.4-1.4c.3-.4.7-.7,1.1-.9.5-.2.9-.3,1.5-.3h0c.2,0,.5,0,.9,0,.4,0,.9,0,1.3,0h1.5v1.6h-1c.1.3.2.6.2.8,0,.8-.3,1.4-.8,1.9-.5.4-1.3.7-2.1.7s-.5.1-.5.3,0,.2.2.2.3,0,.6,0h.7c.8,0,1.4.2,1.9.6.4.4.6.9.6,1.5s-.3,1.3-.9,1.7c-.6.4-1.4.6-2.4.6h-.2c-1,0-1.8-.2-2.3-.5-.6-.3-.9-.8-.9-1.5ZM368.6,375.2c0,.2,0,.3.3.4.2,0,.5.1.9.1h.3c.8,0,1.2-.2,1.2-.6s-.1-.4-.3-.5c-.2,0-.5-.1-.9-.1h-.3c-.8,0-1.2.2-1.2.6ZM368.9,369.9c0,.3,0,.5.3.7.2.2.4.3.7.3s.5,0,.7-.3.3-.4.3-.7,0-.5-.3-.6c-.2-.2-.4-.3-.7-.3s-.5,0-.7.3c-.2.2-.3.4-.3.6Z"/>
        <path class="cls-2" d="M374.2,370.9c0-.6.1-1.1.3-1.6s.5-.9.9-1.2c.4-.3.8-.5,1.2-.7s.9-.2,1.3-.2.9,0,1.4.2c.4.2.8.4,1.2.7.4.3.6.7.8,1.2.2.5.3,1,.3,1.6s0,.9-.2,1.3-.3.8-.6,1.1c-.2.3-.5.5-.8.7s-.7.4-1,.5c-.4,0-.7.1-1.1.1s-.9,0-1.4-.2c-.4-.2-.8-.4-1.2-.7-.4-.3-.6-.7-.8-1.2-.2-.5-.3-1-.3-1.6ZM376.5,370.9c0,.5.1,1,.4,1.3s.6.4,1,.4.7-.1,1-.4c.3-.3.4-.7.4-1.3s-.1-.9-.4-1.2-.6-.4-1-.4-.7.1-1,.4c-.3.3-.4.7-.4,1.2Z"/>
        <path class="cls-2" d="M385.6,369.3v-1.9h.9v-1.8h2.3v1.8h1.6v1.9h-1.6v2.7c0,.3,0,.5.1.6s.2.1.4.1.4,0,.6-.2l.8,1.5c-.5.4-1.1.6-1.9.6s-1.3-.2-1.7-.6c-.4-.4-.6-1-.6-1.7v-3s-.9,0-.9,0Z"/>
        <path class="cls-2" d="M391,370.9c0-.6.1-1.1.3-1.6s.5-.9.9-1.2c.4-.3.8-.5,1.2-.7s.9-.2,1.3-.2.9,0,1.4.2c.4.2.8.4,1.2.7.4.3.6.7.8,1.2.2.5.3,1,.3,1.6s0,.9-.2,1.3-.3.8-.6,1.1c-.2.3-.5.5-.8.7s-.7.4-1,.5c-.4,0-.7.1-1.1.1s-.9,0-1.4-.2c-.4-.2-.8-.4-1.2-.7-.4-.3-.6-.7-.8-1.2-.2-.5-.3-1-.3-1.6ZM393.4,370.9c0,.5.1,1,.4,1.3s.6.4,1,.4.7-.1,1-.4c.3-.3.4-.7.4-1.3s-.1-.9-.4-1.2-.6-.4-1-.4-.7.1-1,.4c-.3.3-.4.7-.4,1.2Z"/>
        <path class="cls-2" d="M402.4,375.4c0-.7.4-1.2,1.2-1.5-.3-.2-.5-.5-.5-.9s.2-.8.7-1c-.4-.2-.6-.5-.8-.9s-.3-.8-.3-1.2.1-1,.4-1.4c.3-.4.7-.7,1.1-.9.5-.2.9-.3,1.5-.3h0c.2,0,.5,0,.9,0,.4,0,.9,0,1.3,0h1.5v1.6h-1c.1.3.2.6.2.8,0,.8-.3,1.4-.8,1.9-.5.4-1.3.7-2.1.7s-.5.1-.5.3,0,.2.2.2.3,0,.6,0h.7c.8,0,1.4.2,1.9.6.4.4.6.9.6,1.5s-.3,1.3-.9,1.7c-.6.4-1.4.6-2.4.6h-.2c-1,0-1.8-.2-2.3-.5-.6-.3-.9-.8-.9-1.5ZM404.4,375.2c0,.2,0,.3.3.4.2,0,.5.1.9.1h.3c.8,0,1.2-.2,1.2-.6s-.1-.4-.3-.5c-.2,0-.5-.1-.9-.1h-.3c-.8,0-1.2.2-1.2.6ZM404.7,369.9c0,.3,0,.5.3.7.2.2.4.3.7.3s.5,0,.7-.3.3-.4.3-.7,0-.5-.3-.6c-.2-.2-.4-.3-.7-.3s-.5,0-.7.3c-.2.2-.3.4-.3.6Z"/>
        <path class="cls-2" d="M409.7,367.4h2.3l1.4,3.4,1.3-3.4h2.2l-4.1,9.8h-2.2l1.6-4-2.6-5.8Z"/>
        <path class="cls-2" d="M417.8,374.5v-7.1h2.3v.8c.5-.6,1.2-.9,2-.9s.8,0,1.2.3.6.4.8.7c.6-.7,1.3-1,2.2-1s1.5.2,2,.7.7,1.1.7,2v4.5h-2.3v-4c0-.4,0-.7-.3-.9s-.4-.3-.7-.3-.5,0-.7.2c-.2.1-.3.3-.5.6v4.4h-2.3v-4c0-.4,0-.7-.3-.9s-.4-.3-.8-.3c-.5,0-.9.3-1.1.8v4.4h-2.3Z"/>
      </g>
      <g>
        <path class="cls-2" d="M384.3,389.7c0-.5,0-1,.3-1.4.2-.4.4-.8.8-1,.3-.3.7-.5,1.1-.6s.8-.2,1.2-.2.8,0,1.2.2c.4.1.7.3,1.1.6.3.3.6.6.8,1s.3.9.3,1.4,0,.8-.2,1.2c-.1.4-.3.7-.5.9-.2.3-.5.5-.8.7-.3.2-.6.3-.9.4-.3,0-.6.1-1,.1s-.8,0-1.2-.2c-.4-.1-.7-.3-1.1-.6-.3-.3-.6-.6-.8-1.1-.2-.4-.3-.9-.3-1.5ZM386.3,389.7c0,.5.1.9.4,1.1.2.3.5.4.9.4s.6-.1.9-.4c.2-.3.4-.6.4-1.1s-.1-.8-.4-1.1c-.2-.3-.5-.4-.9-.4s-.6.1-.9.4c-.2.3-.4.6-.4,1.1Z"/>
        <path class="cls-2" d="M392,392.9v-6.3h2v.7c.2-.3.3-.5.6-.6s.5-.2.8-.2c.5,0,.8.1,1.1.3l-.6,1.8c-.3-.2-.6-.3-.9-.3s-.4,0-.5.2c-.2.1-.3.2-.4.4v4h-2Z"/>
        <path class="cls-2" d="M400,389.7c0-.5,0-1,.2-1.5.2-.4.4-.8.7-1,.3-.3.6-.5.9-.6.3-.1.7-.2,1.1-.2.6,0,1.1.2,1.5.5v-3.1h2v9.1h-1.9v-.6c-.5.4-1,.7-1.6.7s-.6,0-.8-.1c-.3,0-.5-.2-.8-.4-.2-.2-.5-.4-.6-.6s-.3-.6-.4-.9-.2-.8-.2-1.2ZM402.4,388.6c-.2.2-.3.6-.3,1.1s.1.9.3,1.1c.2.2.5.4.9.4s.6,0,.8-.3c.2-.2.3-.5.3-.8v-.8c0-.3-.1-.5-.3-.7-.2-.2-.5-.3-.8-.3s-.6.1-.9.4Z"/>
        <path class="cls-2" d="M407.5,389.7c0-.5,0-1,.3-1.4.2-.4.4-.8.8-1,.3-.3.7-.5,1.1-.6s.8-.2,1.2-.2.8,0,1.2.2c.4.1.7.3,1.1.6.3.3.6.6.8,1s.3.9.3,1.4,0,.8-.2,1.2c-.1.4-.3.7-.5.9-.2.3-.5.5-.8.7-.3.2-.6.3-.9.4-.3,0-.6.1-1,.1s-.8,0-1.2-.2c-.4-.1-.7-.3-1.1-.6-.3-.3-.6-.6-.8-1.1-.2-.4-.3-.9-.3-1.5ZM409.6,389.7c0,.5.1.9.4,1.1.2.3.5.4.9.4s.6-.1.9-.4c.2-.3.4-.6.4-1.1s-.1-.8-.4-1.1c-.2-.3-.5-.4-.9-.4s-.6.1-.9.4c-.2.3-.4.6-.4,1.1Z"/>
        <path class="cls-2" d="M415.3,392.9v-6.3h2v.7c.4-.6,1-.9,1.8-.9s1.2.2,1.6.6c.4.4.6,1,.6,1.8v4h-2v-3.6c0-.7-.3-1.1-1-1.1s-.4,0-.6.2c-.2.1-.3.3-.4.5v4h-2Z"/>
        <path class="cls-2" d="M422.2,387l.5-3h1.7l-.6,3h-1.5Z"/>
        <path class="cls-2" d="M425.2,388.2v-1.7h.8v-1.6h2v1.6h1.4v1.7h-1.4v2.4c0,.2,0,.4.1.5,0,0,.2.1.4.1s.3,0,.6-.2l.7,1.4c-.5.4-1,.5-1.7.5s-1.1-.2-1.5-.5c-.4-.3-.6-.9-.6-1.6v-2.6s-.8,0-.8,0Z"/>
      </g>
      <g>
        <path class="cls-2" d="M393.1,405.9v-3h1v.3c.2-.3.5-.4.9-.4s.6,0,.7.3.3.5.3.9v1.9h-1v-1.7c0-.3-.2-.5-.5-.5s-.2,0-.3,0c0,0-.2.1-.2.2v1.9h-1Z"/>
        <path class="cls-2" d="M396.5,404.4c0-.2,0-.5.1-.7,0-.2.2-.4.4-.5s.3-.2.5-.3.4,0,.6,0,.4,0,.6,0,.3.2.5.3c.1.1.3.3.4.5,0,.2.1.4.1.7s0,.4,0,.6-.1.3-.2.4c-.1.1-.2.2-.4.3-.1,0-.3.2-.4.2-.1,0-.3,0-.5,0s-.4,0-.6,0-.3-.2-.5-.3c-.1-.1-.3-.3-.4-.5,0-.2-.1-.4-.1-.7ZM397.4,404.4c0,.2,0,.4.2.5.1.1.3.2.4.2s.3,0,.4-.2c.1-.1.2-.3.2-.5s0-.4-.2-.5c-.1-.1-.2-.2-.4-.2s-.3,0-.4.2c-.1.1-.2.3-.2.5Z"/>
        <path class="cls-2" d="M400.1,405.9v-4.2h1v1.4c.2-.1.4-.2.7-.2s.3,0,.5,0c.2,0,.3.2.4.3s.2.3.3.5.1.4.1.7,0,.4,0,.6c0,.2-.1.3-.2.4s-.2.2-.3.3c-.1,0-.2.1-.4.2-.1,0-.3,0-.4,0-.3,0-.6-.1-.8-.4v.3h-.9ZM401.1,404.6c0,.1,0,.3.1.4,0,0,.2.1.4.1s.3,0,.4-.2c.1-.1.2-.3.2-.5s0-.4-.2-.5c-.1-.1-.2-.2-.4-.2s-.3,0-.4.1c0,0-.1.2-.1.3v.4Z"/>
        <path class="cls-2" d="M403.5,404.4c0-.2,0-.5.1-.7,0-.2.2-.4.4-.5s.3-.2.5-.3.4,0,.6,0,.4,0,.6,0,.3.2.5.3c.1.1.3.3.4.5,0,.2.1.4.1.7s0,.4,0,.6-.1.3-.2.4c-.1.1-.2.2-.4.3-.1,0-.3.2-.4.2-.1,0-.3,0-.5,0s-.4,0-.6,0-.3-.2-.5-.3c-.1-.1-.3-.3-.4-.5,0-.2-.1-.4-.1-.7ZM404.5,404.4c0,.2,0,.4.2.5.1.1.3.2.4.2s.3,0,.4-.2c.1-.1.2-.3.2-.5s0-.4-.2-.5c-.1-.1-.2-.2-.4-.2s-.3,0-.4.2c-.1.1-.2.3-.2.5Z"/>
        <path class="cls-2" d="M407,404.4c0-.3,0-.5.1-.7,0-.2.2-.4.3-.5s.3-.2.4-.3c.2,0,.3,0,.5,0,.3,0,.5,0,.7.2v-1.4h1v4.2h-.9v-.3c-.2.2-.5.3-.8.3s-.3,0-.4,0c-.1,0-.2,0-.4-.2-.1,0-.2-.2-.3-.3,0-.1-.2-.3-.2-.4,0-.2,0-.4,0-.6ZM408.1,403.9c-.1.1-.2.3-.2.5s0,.4.2.5c.1.1.2.2.4.2s.3,0,.4-.1c0,0,.1-.2.1-.4v-.4c0-.1,0-.3-.1-.3,0,0-.2-.1-.4-.1s-.3,0-.4.2Z"/>
        <path class="cls-2" d="M410.4,402.9h1l.6,1.4.5-1.4h.9l-1.7,4.1h-.9l.7-1.7-1.1-2.4Z"/>
        <path class="cls-2" d="M414.9,404.4c0-.2,0-.5.1-.7,0-.2.2-.4.3-.5s.3-.2.5-.3c.2,0,.4,0,.6,0,.4,0,.7,0,.9.3s.4.4.5.7l-.9.2c0-.2-.2-.4-.5-.4s-.3,0-.4.2-.2.3-.2.5,0,.4.2.5c.1.1.2.2.4.2s.2,0,.3-.1c0,0,.2-.2.2-.3l.9.3c-.1.3-.3.5-.5.7s-.6.2-.9.2-.4,0-.6,0-.3-.2-.5-.3c-.1-.1-.3-.3-.3-.5,0-.2-.1-.4-.1-.7Z"/>
        <path class="cls-2" d="M418.2,405c0-.2,0-.4.2-.6.2-.1.4-.2.7-.3l.8-.2c0-.2-.2-.2-.4-.2s-.4.1-.5.3l-.9-.2c0-.3.2-.5.5-.7.2-.2.5-.2.9-.2s.8,0,1,.3c.2.2.4.5.4.8v2h-.9v-.3s0,0,0,0c-.2.2-.5.3-.8.3s-.5,0-.7-.3c-.2-.2-.3-.4-.3-.7ZM419.1,404.9c0,0,0,.1,0,.2,0,0,.1,0,.2,0s.2,0,.4-.1h.2c0,0,0-.5,0-.5h-.4c-.2.2-.3.2-.3.2,0,0,0,0,0,.2Z"/>
        <path class="cls-2" d="M421.6,405.9v-3h1v.3c0-.1.2-.2.3-.3.1,0,.2-.1.4-.1.2,0,.4,0,.5.1l-.3.8c-.1,0-.3-.1-.4-.1s-.2,0-.3,0c0,0-.1.1-.2.2v1.9h-1Z"/>
        <path class="cls-2" d="M423.8,404.4c0-.2,0-.5.1-.7,0-.2.2-.4.3-.5s.3-.2.5-.3.4-.1.6-.1c.4,0,.8.1,1,.4.3.3.4.6.4,1.1,0,.1,0,.2,0,.3h-2c0,.2,0,.3.2.4.1,0,.3.1.5.1.3,0,.5-.1.7-.3l.6.4c-.3.5-.7.7-1.4.7s-.4,0-.6,0-.4-.2-.5-.3c-.1-.1-.3-.3-.3-.5,0-.2-.1-.4-.1-.7ZM424.7,404h1c0-.1,0-.2-.2-.3,0,0-.2-.1-.4-.1s-.2,0-.3.1c-.1,0-.2.2-.2.3Z"/>
        <path class="cls-2" d="M427,405.1l.8-.2c0,.3.3.4.5.4s.2,0,.3,0c0,0,.1,0,.1-.2s0-.1-.1-.2c0,0-.2,0-.4-.1-.3,0-.6-.2-.8-.3-.2-.1-.3-.4-.3-.6s.1-.5.4-.7c.2-.2.6-.3,1-.3s.6,0,.8.2c.2.1.3.3.4.6l-.8.2c0-.2-.2-.3-.4-.3s-.2,0-.3,0c0,0,0,.1,0,.2s0,.1.1.2.2,0,.4,0c.7.1,1.1.4,1.1.9s-.1.5-.4.7c-.2.2-.6.3-1,.3-.8,0-1.2-.3-1.3-.9Z"/>
      </g>
    </g>
  </g>
</svg>