<?xml version="1.0" encoding="UTF-8"?>
<svg xmlns="http://www.w3.org/2000/svg" version="1.1" viewBox="0 0 389.8 180.8">
  <defs>
    <style>
      .cls-1 {
        fill: #12ff7d;
        stroke: #231f20;
        stroke-miterlimit: 10;
      }

      .cls-2 {
        fill: #b400ff;
      }
    </style>
  </defs>
  <!-- Generator: Adobe Illustrator 28.6.0, SVG Export Plug-In . SVG Version: 1.2.0 Build 709)  -->
  <g>
    <g id="Layer_1">
      <g id="Layer_1-2" data-name="Layer_1">
        <path class="cls-1" d="M.7,52.5l2.8-12.9h9.5l2.9-13.6H6.4l2.8-12.9h9.4L21.2.7h14.3l-2.6,12.4h10l2.6-12.4h14.3l-2.6,12.4h9.5l-2.8,12.9h-9.4l-2.9,13.6h9.5l-2.8,12.9h-9.4l-2.6,12.3h-14.3l2.6-12.3h-10l-2.6,12.3H7.7l2.6-12.3H.7ZM27.2,39.6h10l2.9-13.6h-10l-2.9,13.6Z"/>
        <g>
          <path class="cls-1" d="M74.2,29.2v-8.9h4.8v-2.5c0-4.2,1.2-7.5,3.7-9.7.9-.9,2.2-1.6,3.8-2.1s3.1-.7,4.7-.7c5,0,8.7,1.4,10.9,4.1l-5.4,6.5c-1.1-1.1-2.3-1.7-3.7-1.7s-1.7.3-2.3.8-.8,1.4-.8,2.4v2.8h7v8.9h-7v24.6h-10.9v-24.6h-4.8,0Z"/>
          <path class="cls-1" d="M98.7,36.9c0-2.7.5-5.2,1.4-7.4.9-2.2,2.2-4.1,3.8-5.6s3.4-2.6,5.5-3.4c2.1-.8,4.2-1.2,6.5-1.2,4.7,0,8.6,1.5,11.6,4.6,3,3,4.6,7.1,4.7,12.2v3.6h-22.8c.2,1.8.9,3.3,2.4,4.3,1.4,1.1,3.2,1.6,5.3,1.6,3.3,0,5.8-1.3,7.6-3.9l7.3,4.5c-2.9,5.5-8.1,8.3-15.4,8.3s-4.6-.4-6.7-1.1c-2.1-.8-4-1.8-5.7-3.3-1.7-1.4-3-3.3-4-5.5-1-2.3-1.5-4.8-1.5-7.7h0ZM109.6,33.1h11.7c0-1.6-.6-2.8-1.7-3.6s-2.5-1.2-4.1-1.2-2.8.4-4,1.2c-1.1.8-1.8,2-1.9,3.6Z"/>
          <path class="cls-1" d="M136.5,36.8c0-2.8.5-5.3,1.5-7.6,1-2.3,2.3-4.1,3.9-5.5s3.5-2.5,5.5-3.3,4.1-1.1,6.2-1.1c4.3,0,7.8,1,10.6,3s4.6,4.7,5.4,7.9l-10.2,2.7c-.8-2.7-2.7-4-5.6-4s-3.2.7-4.5,2c-1.2,1.4-1.8,3.3-1.8,5.8s.6,4.6,1.9,6c1.2,1.4,2.7,2.1,4.5,2.1s2.8-.4,3.8-1.2c1-.8,1.7-1.9,2.2-3.2l9.8,3.4c-1.2,3.5-3.2,6.2-6.1,8-2.9,1.8-6.2,2.7-10.1,2.7s-4.3-.4-6.3-1.1c-2-.8-3.8-1.8-5.4-3.3-1.6-1.4-2.9-3.3-3.9-5.6s-1.5-4.9-1.5-7.7h.1Z"/>
          <path class="cls-1" d="M174.4,10.8c0-1.7.5-3.1,1.4-4.3,1-1.2,2.3-1.7,4-1.7s3.2.6,4.4,1.7c1.2,1.2,1.8,2.6,1.8,4.3s-.6,3.1-1.8,4.3-2.6,1.8-4.4,1.8-3.1-.6-4-1.8c-1-1.2-1.4-2.6-1.4-4.3ZM174.4,53.8V20.3h10.9v33.5h-10.9Z"/>
          <path class="cls-1" d="M190.8,29.2v-8.9h4.4v-8.7h10.9v8.7h7.4v8.9h-7.5v12.8c0,1.3.2,2.1.7,2.6s1.1.7,2,.7,1.8-.4,2.9-1.1l3.6,7.2c-2.4,1.9-5.4,2.9-9,2.9s-6.1-.9-8.1-2.7c-2-1.8-3.1-4.6-3.1-8.2v-14h-4.3v-.2Z"/>
          <path class="cls-1" d="M216.7,36.9c0-2.7.5-5.2,1.4-7.4.9-2.2,2.2-4.1,3.8-5.6,1.6-1.5,3.4-2.6,5.5-3.4,2.1-.8,4.2-1.2,6.5-1.2,4.7,0,8.6,1.5,11.6,4.6,3,3,4.6,7.1,4.7,12.2v3.6h-22.8c.2,1.8.9,3.3,2.4,4.3s3.2,1.6,5.3,1.6c3.3,0,5.8-1.3,7.6-3.9l7.3,4.5c-2.9,5.5-8.1,8.3-15.4,8.3s-4.6-.4-6.7-1.1c-2.1-.8-4-1.8-5.7-3.3-1.7-1.4-3-3.3-4-5.5-1-2.3-1.5-4.8-1.5-7.7h0ZM227.6,33.1h11.7c0-1.6-.6-2.8-1.7-3.6s-2.5-1.2-4.1-1.2-2.8.4-4,1.2c-1.1.8-1.8,2-1.9,3.6Z"/>
          <path class="cls-1" d="M256.3,53.8V5.7h10.9v23.8l10-9.3h13.7l-12.2,11.1,12.3,22.4h-12.4l-8.2-15.8-3.3,3v12.8h-10.9.1Z"/>
          <path class="cls-1" d="M295.1,53.8V20.3h10.9v3.6c2.4-2.9,5.5-4.4,9.4-4.4s3.8.4,5.4,1.2,3,1.9,4,3.5c2.6-3.1,6.1-4.6,10.6-4.6s6.9,1.1,9.2,3.4c2.3,2.2,3.5,5.4,3.5,9.5v21.4h-10.9v-19.1c0-1.8-.4-3.2-1.3-4.1s-2.1-1.4-3.5-1.4-2.2.3-3.1,1-1.6,1.6-2.2,2.7v20.9h-10.9v-19.1c0-1.8-.5-3.2-1.4-4.1s-2.1-1.4-3.5-1.4c-2.3,0-4.1,1.2-5.3,3.7v20.9h-10.9Z"/>
          <path class="cls-1" d="M353.7,36.9c0-2.7.5-5.2,1.4-7.4.9-2.2,2.2-4.1,3.8-5.6,1.6-1.5,3.4-2.6,5.5-3.4s4.2-1.2,6.5-1.2c4.7,0,8.6,1.5,11.6,4.6,3,3,4.6,7.1,4.7,12.2v3.6h-22.8c.2,1.8.9,3.3,2.4,4.3,1.4,1.1,3.2,1.6,5.3,1.6,3.3,0,5.8-1.3,7.6-3.9l7.3,4.5c-2.9,5.5-8.1,8.3-15.4,8.3s-4.6-.4-6.7-1.1c-2.1-.8-4-1.8-5.7-3.3-1.7-1.4-3-3.3-4-5.5s-1.5-4.8-1.5-7.7h0ZM364.6,33.1h11.7c0-1.6-.6-2.8-1.7-3.6s-2.5-1.2-4.1-1.2-2.8.4-4,1.2c-1.1.8-1.8,2-1.9,3.6Z"/>
        </g>
        <g>
          <path class="cls-2" d="M205.8,81.7c0-1,.2-1.9.5-2.7.4-.8.8-1.5,1.4-2s1.2-.9,2-1.2,1.5-.4,2.2-.4c1.5,0,2.8.4,3.8,1.1s1.6,1.7,1.9,2.8l-3.7,1c-.3-1-1-1.4-2-1.4s-1.2.2-1.6.7c-.4.5-.7,1.2-.7,2.1s.2,1.6.7,2.1c.4.5,1,.8,1.6.8s1-.1,1.4-.4.6-.7.8-1.2l3.5,1.2c-.4,1.3-1.1,2.2-2.2,2.9s-2.2,1-3.6,1-1.5-.1-2.3-.4c-.7-.3-1.4-.7-2-1.2s-1.1-1.2-1.4-2c-.3-.8-.5-1.8-.5-2.8h.2Z"/>
          <path class="cls-2" d="M218.9,81.7c0-1,.2-1.9.5-2.7.4-.8.9-1.5,1.5-2s1.3-.9,2-1.2,1.5-.4,2.3-.4,1.6.1,2.3.4,1.4.7,2,1.2,1.1,1.2,1.4,2c.4.8.5,1.7.5,2.8s-.1,1.6-.4,2.3-.6,1.3-1,1.8-.9.9-1.4,1.3-1.1.6-1.7.8c-.6.2-1.2.3-1.8.3s-1.6-.1-2.3-.4c-.7-.3-1.4-.7-2-1.2s-1.1-1.2-1.4-2c-.4-.8-.5-1.8-.5-2.8v-.2ZM222.9,81.7c0,.9.2,1.6.7,2.1s1,.8,1.7.8,1.2-.3,1.7-.8.7-1.2.7-2.1-.2-1.6-.7-2.1-1-.7-1.7-.7-1.2.2-1.7.7-.7,1.2-.7,2.1Z"/>
          <path class="cls-2" d="M233.2,81.7c0-1,.2-1.9.5-2.8.3-.8.7-1.5,1.2-2s1.1-.9,1.7-1.1,1.3-.4,2-.4c1.1,0,2,.3,2.8.9v-5.9h3.9v17.3h-3.6v-1.1c-.9.8-1.9,1.3-3.1,1.3s-1.1,0-1.6-.2-1-.4-1.5-.7-.9-.7-1.2-1.2-.6-1.1-.8-1.8c-.2-.7-.3-1.5-.3-2.3h0ZM237.8,79.6c-.4.5-.7,1.2-.7,2.1s.2,1.6.7,2.1,1,.7,1.6.7,1.1-.2,1.5-.6.6-.9.6-1.5v-1.6c0-.6-.2-1-.6-1.4s-.9-.6-1.5-.6-1.2.2-1.6.7h0Z"/>
          <path class="cls-2" d="M247.6,81.7c0-1,.2-1.9.5-2.7s.8-1.5,1.4-2,1.2-.9,2-1.2,1.5-.4,2.3-.4c1.7,0,3.1.5,4.2,1.6s1.7,2.6,1.7,4.4v1.3h-8.2c0,.6.3,1.2.9,1.6s1.1.6,1.9.6c1.2,0,2.1-.5,2.7-1.4l2.6,1.6c-1.1,2-2.9,3-5.5,3s-1.7-.1-2.4-.4c-.8-.3-1.4-.7-2-1.2s-1.1-1.2-1.4-2-.5-1.7-.5-2.8h-.2ZM251.5,80.3h4.2c0-.6-.2-1-.6-1.3s-.9-.4-1.5-.4-1,.1-1.4.4-.6.7-.7,1.3Z"/>
          <path class="cls-2" d="M267.1,72.3c0-.6.2-1.1.5-1.5s.8-.6,1.4-.6,1.1.2,1.6.6c.4.4.6.9.6,1.5s-.2,1.1-.6,1.6-.9.6-1.6.6-1.1-.2-1.4-.6-.5-.9-.5-1.6ZM267.2,87.8v-12h3.9v12h-3.9Z"/>
          <path class="cls-2" d="M273.3,78.9v-3.2h1.7v-.9c0-1.5.4-2.7,1.3-3.5.3-.3.8-.6,1.3-.7.6-.2,1.1-.3,1.7-.3,1.8,0,3.1.5,3.9,1.5l-2,2.3c-.4-.4-.8-.6-1.3-.6s-.6,0-.8.3-.3.5-.3.9v1h2.5v3.2h-2.5v8.8h-3.9v-8.8h-1.7,0Z"/>
          <path class="cls-2" d="M287.3,75.7h4l2.3,5.7,2.2-5.7h3.8l-6.9,16.6h-3.8l2.7-6.8-4.3-9.9h0Z"/>
          <path class="cls-2" d="M299.9,81.7c0-1,.2-1.9.5-2.7.4-.8.9-1.5,1.5-2s1.3-.9,2-1.2,1.5-.4,2.3-.4,1.6.1,2.3.4,1.4.7,2,1.2,1.1,1.2,1.4,2c.4.8.5,1.7.5,2.8s-.1,1.6-.4,2.3-.6,1.3-1,1.8-.9.9-1.4,1.3-1.1.6-1.7.8c-.6.2-1.2.3-1.8.3s-1.6-.1-2.3-.4c-.7-.3-1.4-.7-2-1.2s-1.1-1.2-1.4-2c-.4-.8-.5-1.8-.5-2.8v-.2ZM303.9,81.7c0,.9.2,1.6.7,2.1s1,.8,1.7.8,1.2-.3,1.7-.8.7-1.2.7-2.1-.2-1.6-.7-2.1-1-.7-1.7-.7-1.2.2-1.7.7-.7,1.2-.7,2.1Z"/>
          <path class="cls-2" d="M314.6,83.4v-7.7h3.9v6.8c0,.7.2,1.2.5,1.5s.8.5,1.3.5.7-.1,1.1-.3c.3-.2.6-.5.8-.9v-7.6h3.9v12h-3.9v-1.4c-.8,1.1-2,1.6-3.5,1.6s-2.3-.4-3-1.2-1.1-1.9-1.1-3.4h0Z"/>
          <path class="cls-2" d="M334.6,87.8v-12h3.9v1.3c.8-1.1,2-1.6,3.5-1.6s2.3.4,3.1,1.2,1.2,2,1.2,3.5v7.6h-3.9v-6.8c0-1.4-.6-2.1-1.8-2.1s-.8.1-1.1.3c-.4.2-.6.5-.8,1v7.6h-4.1Z"/>
          <path class="cls-2" d="M348.2,81.7c0-1,.2-1.9.5-2.7s.8-1.5,1.4-2,1.2-.9,2-1.2,1.5-.4,2.3-.4c1.7,0,3.1.5,4.2,1.6s1.7,2.6,1.7,4.4v1.3h-8.2c0,.6.3,1.2.9,1.6s1.1.6,1.9.6c1.2,0,2.1-.5,2.7-1.4l2.6,1.6c-1.1,2-2.9,3-5.5,3s-1.7-.1-2.4-.4c-.8-.3-1.4-.7-2-1.2s-1.1-1.2-1.4-2-.5-1.7-.5-2.8h-.2ZM352.1,80.3h4.2c0-.6-.2-1-.6-1.3s-.9-.4-1.5-.4-1,.1-1.4.4-.6.7-.7,1.3Z"/>
          <path class="cls-2" d="M361.8,81.7c0-1,.2-1.9.5-2.7s.8-1.5,1.4-2,1.2-.9,2-1.2,1.5-.4,2.3-.4c1.7,0,3.1.5,4.2,1.6s1.7,2.6,1.7,4.4v1.3h-8.2c0,.6.3,1.2.9,1.6s1.1.6,1.9.6c1.2,0,2.1-.5,2.7-1.4l2.6,1.6c-1.1,2-2.9,3-5.5,3s-1.7-.1-2.4-.4c-.8-.3-1.4-.7-2-1.2s-1.1-1.2-1.4-2-.5-1.7-.5-2.8h-.2ZM365.8,80.3h4.2c0-.6-.2-1-.6-1.3s-.9-.4-1.5-.4-1,.1-1.4.4-.6.7-.7,1.3Z"/>
          <path class="cls-2" d="M375.6,81.7c0-1,.2-1.9.5-2.8.3-.8.7-1.5,1.2-2s1.1-.9,1.7-1.1,1.3-.4,2-.4c1.1,0,2,.3,2.8.9v-5.9h3.9v17.3h-3.6v-1.1c-.9.8-1.9,1.3-3.1,1.3s-1.1,0-1.6-.2-1-.4-1.5-.7-.9-.7-1.2-1.2-.6-1.1-.8-1.8c-.2-.7-.3-1.5-.3-2.3h0ZM380.2,79.6c-.4.5-.7,1.2-.7,2.1s.2,1.6.7,2.1,1,.7,1.6.7,1.1-.2,1.5-.6.6-.9.6-1.5v-1.6c0-.6-.2-1-.6-1.4s-.9-.6-1.5-.6-1.2.2-1.6.7h0Z"/>
        </g>
        <g>
          <path class="cls-2" d="M235.5,105.5c0-.7.1-1.4.4-2s.6-1.1,1-1.4c.4-.4.9-.6,1.4-.8.5-.2,1.1-.3,1.6-.3,1.1,0,2,.3,2.7.8s1.2,1.2,1.4,2l-2.6.7c-.2-.7-.7-1-1.4-1s-.8.2-1.2.5c-.3.3-.5.8-.5,1.5s.2,1.2.5,1.5c.3.4.7.5,1.2.5s.7-.1,1-.3c.3-.2.4-.5.6-.8l2.5.9c-.3.9-.8,1.6-1.6,2.1s-1.6.7-2.6.7-1.1,0-1.6-.3c-.5-.2-1-.5-1.4-.8-.4-.4-.8-.8-1-1.4s-.4-1.3-.4-2h0Z"/>
          <path class="cls-2" d="M244.9,105.5c0-.7.1-1.4.4-2s.6-1.1,1-1.4c.4-.4.9-.6,1.5-.8.5-.2,1.1-.3,1.6-.3s1.1,0,1.7.3c.5.2,1,.5,1.4.8.4.4.8.8,1,1.4.3.6.4,1.2.4,2s0,1.1-.3,1.6c-.2.5-.4.9-.7,1.3s-.6.7-1,.9c-.4.3-.8.4-1.2.6s-.9.2-1.3.2-1.1,0-1.7-.3c-.5-.2-1-.5-1.4-.8-.4-.4-.8-.8-1-1.4-.3-.6-.4-1.3-.4-2h0ZM247.8,105.5c0,.7.2,1.2.5,1.5.3.4.7.5,1.2.5s.9-.2,1.2-.5c.3-.4.5-.9.5-1.5s-.2-1.1-.5-1.5-.7-.5-1.2-.5-.9.2-1.2.5-.5.9-.5,1.5Z"/>
          <path class="cls-2" d="M255.2,105.5c0-.7.1-1.4.3-2,.2-.6.5-1.1.9-1.4s.8-.6,1.2-.8c.5-.2.9-.3,1.4-.3.8,0,1.5.2,2,.6v-4.2h2.8v12.4h-2.6v-.8c-.6.6-1.4.9-2.2.9s-.8,0-1.2-.2c-.4-.1-.7-.3-1.1-.5s-.6-.5-.9-.9c-.3-.3-.5-.8-.6-1.3s-.2-1-.2-1.6h.2ZM258.5,104c-.3.3-.5.8-.5,1.5s.2,1.2.5,1.5.7.5,1.2.5.8-.1,1.1-.4.4-.6.4-1v-1.1c0-.4-.2-.7-.4-1-.3-.3-.6-.4-1.1-.4s-.8.2-1.2.5h0Z"/>
          <path class="cls-2" d="M265.5,105.5c0-.7.1-1.3.4-1.9.2-.6.6-1.1,1-1.4.4-.4.9-.7,1.4-.9.5-.2,1.1-.3,1.7-.3,1.2,0,2.2.4,3,1.2.8.8,1.2,1.8,1.2,3.1v.9h-5.9c0,.5.2.8.6,1.1.4.3.8.4,1.4.4s1.5-.3,2-1l1.9,1.2c-.8,1.4-2.1,2.1-4,2.1s-1.2,0-1.7-.3c-.5-.2-1-.5-1.5-.8-.4-.4-.8-.8-1-1.4-.3-.6-.4-1.3-.4-2h-.1ZM268.3,104.5h3c0-.4-.2-.7-.4-.9s-.6-.3-1.1-.3-.7.1-1,.3c-.3.2-.5.5-.5.9Z"/>
          <path class="cls-2" d="M275.7,109.8v-8.6h2.8v1c.6-.8,1.4-1.2,2.5-1.2s1.6.3,2.2.9.8,1.4.8,2.5v5.5h-2.8v-4.9c0-1-.4-1.5-1.3-1.5s-.6,0-.8.2-.5.4-.6.7v5.4h-2.8Z"/>
          <path class="cls-2" d="M285.3,101.9l.7-4.1h2.3l-.9,4.1h-2.1Z"/>
          <path class="cls-2" d="M289.3,103.5v-2.3h1.1v-2.2h2.8v2.2h1.9v2.3h-1.9v3.3c0,.3,0,.6.2.7s.3.2.5.2.5,0,.8-.3l.9,1.9c-.6.5-1.4.7-2.3.7s-1.6-.2-2.1-.7-.8-1.2-.8-2.1v-3.6h-1.1Z"/>
          <path class="cls-2" d="M300.5,98.7c0-.4.1-.8.4-1.1.2-.3.6-.5,1-.5s.8.2,1.1.5c.3.3.5.7.5,1.1s-.2.8-.5,1.1-.7.5-1.1.5-.8-.2-1-.5-.4-.7-.4-1.1ZM300.5,109.8v-8.6h2.8v8.6h-2.8Z"/>
          <path class="cls-2" d="M304.9,103.5v-2.3h1.2v-.6c0-1.1.3-1.9,1-2.5.2-.2.6-.4,1-.5s.8-.2,1.2-.2c1.3,0,2.2.3,2.8,1l-1.4,1.7c-.3-.3-.6-.4-1-.4s-.4,0-.6.2-.2.4-.2.6v.7h1.8v2.3h-1.8v6.3h-2.8v-6.3h-1.2Z"/>
          <path class="cls-2" d="M314.9,101.2h2.8l1.7,4.1,1.6-4.1h2.7l-5,11.9h-2.7l2-4.9-3.1-7.1h0Z"/>
          <path class="cls-2" d="M324,105.5c0-.7.1-1.4.4-2s.6-1.1,1-1.4c.4-.4.9-.6,1.5-.8.5-.2,1.1-.3,1.6-.3s1.1,0,1.7.3c.5.2,1,.5,1.4.8.4.4.8.8,1,1.4.3.6.4,1.2.4,2s0,1.1-.3,1.6c-.2.5-.4.9-.7,1.3s-.6.7-1,.9c-.4.3-.8.4-1.2.6s-.9.2-1.3.2-1.1,0-1.7-.3c-.5-.2-1-.5-1.4-.8-.4-.4-.8-.8-1-1.4-.3-.6-.4-1.3-.4-2h0ZM326.8,105.5c0,.7.2,1.2.5,1.5.3.4.7.5,1.2.5s.9-.2,1.2-.5c.3-.4.5-.9.5-1.5s-.2-1.1-.5-1.5-.7-.5-1.2-.5-.9.2-1.2.5-.5.9-.5,1.5Z"/>
          <path class="cls-2" d="M334.5,106.7v-5.5h2.8v4.9c0,.5.1.9.4,1.1s.6.3.9.3.5,0,.8-.2c.2-.2.4-.4.6-.7v-5.4h2.8v8.6h-2.8v-1c-.6.8-1.4,1.2-2.5,1.2s-1.6-.3-2.2-.8c-.5-.6-.8-1.4-.8-2.5h0Z"/>
          <path class="cls-2" d="M348.4,105.5c0-.7.1-1.4.3-2,.2-.6.5-1.1.9-1.4s.8-.6,1.2-.8c.5-.2.9-.3,1.4-.3.8,0,1.5.2,2,.6v-4.2h2.8v12.4h-2.6v-.8c-.6.6-1.4.9-2.2.9s-.8,0-1.2-.2c-.4-.1-.7-.3-1.1-.5s-.6-.5-.9-.9c-.3-.3-.5-.8-.6-1.3s-.2-1-.2-1.6h.2ZM351.7,104c-.3.3-.5.8-.5,1.5s.2,1.2.5,1.5.7.5,1.2.5.8-.1,1.1-.4.4-.6.4-1v-1.1c0-.4-.2-.7-.4-1-.3-.3-.6-.4-1.1-.4s-.8.2-1.2.5h0Z"/>
          <path class="cls-2" d="M358.7,105.5c0-.7.1-1.4.4-2s.6-1.1,1-1.4c.4-.4.9-.6,1.5-.8.5-.2,1.1-.3,1.6-.3s1.1,0,1.7.3c.5.2,1,.5,1.4.8.4.4.8.8,1,1.4.3.6.4,1.2.4,2s0,1.1-.3,1.6c-.2.5-.4.9-.7,1.3s-.6.7-1,.9c-.4.3-.8.4-1.2.6s-.9.2-1.3.2-1.1,0-1.7-.3c-.5-.2-1-.5-1.4-.8-.4-.4-.8-.8-1-1.4-.3-.6-.4-1.3-.4-2h0ZM361.5,105.5c0,.7.2,1.2.5,1.5.3.4.7.5,1.2.5s.9-.2,1.2-.5c.3-.4.5-.9.5-1.5s-.2-1.1-.5-1.5-.7-.5-1.2-.5-.9.2-1.2.5-.5.9-.5,1.5Z"/>
          <path class="cls-2" d="M369.3,109.8v-8.6h2.8v1c.6-.8,1.4-1.2,2.5-1.2s1.6.3,2.2.9.8,1.4.8,2.5v5.5h-2.8v-4.9c0-1-.4-1.5-1.3-1.5s-.6,0-.8.2-.5.4-.6.7v5.4h-2.8Z"/>
          <path class="cls-2" d="M378.9,101.9l.7-4.1h2.3l-.9,4.1h-2.1Z"/>
          <path class="cls-2" d="M382.9,103.5v-2.3h1.1v-2.2h2.8v2.2h1.9v2.3h-1.9v3.3c0,.3,0,.6.2.7s.3.2.5.2.5,0,.8-.3l.9,1.9c-.6.5-1.4.7-2.3.7s-1.6-.2-2.1-.7-.8-1.2-.8-2.1v-3.6h-1.1Z"/>
        </g>
        <g>
          <path class="cls-2" d="M289.8,130.3v-10.4h2.3v10.4h-2.3Z"/>
          <path class="cls-2" d="M293.7,121c0-.4.1-.7.3-.9.2-.3.5-.4.9-.4s.7.1.9.4c.3.3.4.6.4.9s-.1.7-.4.9c-.3.3-.6.4-.9.4s-.7-.1-.9-.4c-.2-.3-.3-.6-.3-.9ZM293.7,130.3v-7.2h2.3v7.2h-2.3Z"/>
          <path class="cls-2" d="M297.3,125v-1.9h1v-.5c0-.9.3-1.6.8-2.1s.5-.3.8-.4.7-.2,1-.2c1.1,0,1.9.3,2.4.9l-1.2,1.4c-.2-.2-.5-.4-.8-.4s-.4,0-.5.2c-.1.1-.2.3-.2.5v.6h1.5v1.9h-1.5v5.3h-2.3v-5.3h-1,0Z"/>
          <path class="cls-2" d="M302.6,126.6c0-.6.1-1.1.3-1.6.2-.5.5-.9.8-1.2.3-.3.7-.6,1.2-.7.4-.2.9-.3,1.4-.3,1,0,1.8.3,2.5,1s1,1.5,1,2.6v.8h-4.9c0,.4.2.7.5.9.3.2.7.4,1.1.4.7,0,1.3-.3,1.6-.8l1.6,1c-.6,1.2-1.7,1.8-3.3,1.8s-1,0-1.5-.2-.9-.4-1.2-.7c-.4-.3-.6-.7-.9-1.2-.2-.5-.3-1-.3-1.7h0ZM305,125.8h2.5c0-.3-.1-.6-.4-.8-.2-.2-.5-.3-.9-.3s-.6,0-.9.3-.4.4-.4.8h0Z"/>
          <path class="cls-2" d="M314.3,121c0-.4.1-.7.3-.9.2-.3.5-.4.9-.4s.7.1.9.4c.3.3.4.6.4.9s-.1.7-.4.9c-.3.3-.6.4-.9.4s-.7-.1-.9-.4c-.2-.3-.3-.6-.3-.9ZM314.3,130.3v-7.2h2.3v7.2h-2.3Z"/>
          <path class="cls-2" d="M318,128.3l2-.5c.2.7.6,1,1.3,1s.5,0,.7-.1c.2,0,.3-.2.3-.4s-.1-.3-.3-.4-.6-.2-1.1-.3c-.8-.1-1.4-.4-1.9-.7s-.7-.9-.7-1.5.3-1.3.9-1.7,1.4-.6,2.3-.6,1.6.2,2.1.5c.5.4.8.8,1,1.5l-2,.5c-.1-.5-.5-.8-1.1-.8s-.5,0-.6.2-.2.2-.2.4.1.3.3.4.6.2,1.1.2c1.7.2,2.6,1,2.6,2.3s-.3,1.3-.9,1.7c-.6.4-1.4.6-2.4.6-1.8,0-2.9-.7-3.3-2.1v-.2Z"/>
          <path class="cls-2" d="M328.2,125v-1.9h1v-1.9h2.3v1.9h1.6v1.9h-1.6v2.8c0,.3,0,.5.2.6.1.1.2.2.4.2s.4,0,.6-.2l.8,1.5c-.5.4-1.2.6-1.9.6s-1.3-.2-1.7-.6-.7-1-.7-1.8v-3h-1Z"/>
          <path class="cls-2" d="M333.8,126.6c0-.6.1-1.1.3-1.6.2-.5.5-.9.9-1.2.4-.3.8-.5,1.2-.7.4-.2.9-.2,1.4-.2s1,0,1.4.2.8.4,1.2.7c.4.3.6.7.9,1.2.2.5.3,1,.3,1.6s0,.9-.2,1.4c-.1.4-.3.8-.6,1.1-.2.3-.5.5-.9.8-.3.2-.7.4-1,.5-.4.1-.7.2-1.1.2s-1,0-1.4-.2-.8-.4-1.2-.7c-.4-.3-.6-.7-.9-1.2-.2-.5-.3-1-.3-1.7v-.2ZM336.2,126.6c0,.5.1,1,.4,1.3s.6.5,1,.5.7-.2,1-.5.4-.7.4-1.3-.1-1-.4-1.2c-.3-.3-.6-.4-1-.4s-.7.1-1,.4-.4.7-.4,1.2Z"/>
          <path class="cls-2" d="M342.3,126.6c0-.6.1-1.1.3-1.6.2-.5.5-.9.9-1.2.4-.3.8-.5,1.2-.7.4-.2.9-.2,1.4-.2s1,0,1.4.2.8.4,1.2.7c.4.3.6.7.9,1.2.2.5.3,1,.3,1.6s0,.9-.2,1.4c-.1.4-.3.8-.6,1.1-.2.3-.5.5-.9.8-.3.2-.7.4-1,.5-.4.1-.7.2-1.1.2s-1,0-1.4-.2-.8-.4-1.2-.7c-.4-.3-.6-.7-.9-1.2-.2-.5-.3-1-.3-1.7v-.2ZM344.7,126.6c0,.5.1,1,.4,1.3s.6.5,1,.5.7-.2,1-.5.4-.7.4-1.3-.1-1-.4-1.2c-.3-.3-.6-.4-1-.4s-.7.1-1,.4-.4.7-.4,1.2Z"/>
          <path class="cls-2" d="M353.9,128.3l2-.5c.2.7.6,1,1.3,1s.5,0,.7-.1c.2,0,.3-.2.3-.4s-.1-.3-.3-.4-.6-.2-1.1-.3c-.8-.1-1.4-.4-1.9-.7s-.7-.9-.7-1.5.3-1.3.9-1.7,1.4-.6,2.3-.6,1.6.2,2.1.5c.5.4.8.8,1,1.5l-2,.5c-.1-.5-.5-.8-1.1-.8s-.5,0-.6.2-.2.2-.2.4.1.3.3.4.6.2,1.1.2c1.7.2,2.6,1,2.6,2.3s-.3,1.3-.9,1.7c-.6.4-1.4.6-2.4.6-1.8,0-2.9-.7-3.3-2.1v-.2Z"/>
          <path class="cls-2" d="M361.5,130.3v-10.4h2.3v3.9c.5-.6,1.2-1,2.1-1s1.4.2,1.8.7c.5.5.7,1.2.7,2.1v4.6h-2.3v-4.1c0-.8-.4-1.2-1.1-1.2s-.5,0-.7.2-.4.3-.5.6v4.5h-2.3Z"/>
          <path class="cls-2" d="M369.7,126.6c0-.6.1-1.1.3-1.6.2-.5.5-.9.9-1.2.4-.3.8-.5,1.2-.7.4-.2.9-.2,1.4-.2s1,0,1.4.2.8.4,1.2.7c.4.3.6.7.9,1.2.2.5.3,1,.3,1.6s0,.9-.2,1.4c-.1.4-.3.8-.6,1.1-.2.3-.5.5-.9.8-.3.2-.7.4-1,.5-.4.1-.7.2-1.1.2s-1,0-1.4-.2-.8-.4-1.2-.7c-.4-.3-.6-.7-.9-1.2-.2-.5-.3-1-.3-1.7v-.2ZM372,126.6c0,.5.1,1,.4,1.3s.6.5,1,.5.7-.2,1-.5.4-.7.4-1.3-.1-1-.4-1.2c-.3-.3-.6-.4-1-.4s-.7.1-1,.4-.4.7-.4,1.2Z"/>
          <path class="cls-2" d="M378.5,130.3v-7.2h2.3v.8c.2-.3.4-.5.7-.7.3-.2.6-.3.9-.3.5,0,.9.1,1.3.3l-.7,2c-.3-.2-.6-.3-1-.3s-.4,0-.6.2-.3.3-.5.4v4.6h-2.3v.2Z"/>
          <path class="cls-2" d="M383.9,125v-1.9h1v-1.9h2.3v1.9h1.6v1.9h-1.6v2.8c0,.3,0,.5.2.6.1.1.2.2.4.2s.4,0,.6-.2l.8,1.5c-.5.4-1.2.6-1.9.6s-1.3-.2-1.7-.6-.7-1-.7-1.8v-3h-1Z"/>
        </g>
        <g>
          <path class="cls-2" d="M326,148.9c0-.7.4-1.2,1.2-1.5-.3-.2-.5-.5-.5-.9s.2-.8.7-1c-.4-.2-.6-.5-.8-.9s-.3-.8-.3-1.2.1-1,.4-1.4.7-.7,1.1-.9c.5-.2.9-.3,1.5-.3h3.7v1.6h-1c.1.3.2.6.2.8,0,.8-.3,1.4-.8,1.9-.5.4-1.3.7-2.1.7s-.5.1-.5.3,0,.2.2.2h1.3c.8,0,1.4.2,1.9.6.4.4.6.9.6,1.5s-.3,1.3-.9,1.7c-.6.4-1.4.6-2.4.6h-.2c-1,0-1.8-.2-2.3-.5-.6-.3-.9-.8-.9-1.5v.2ZM328,148.7c0,.2,0,.3.3.4.2,0,.5.1.9.1h.3c.8,0,1.2-.2,1.2-.6s-.1-.4-.3-.5c-.2,0-.5-.1-.9-.1h-.3c-.8,0-1.2.2-1.2.6h0ZM328.3,143.4c0,.3,0,.5.3.7.2.2.4.3.7.3s.5,0,.7-.3.3-.4.3-.7,0-.5-.3-.6c-.2-.2-.4-.3-.7-.3s-.5,0-.7.3c-.2.2-.3.4-.3.6Z"/>
          <path class="cls-2" d="M333.6,144.4c0-.6.1-1.1.3-1.6s.5-.9.9-1.2c.4-.3.8-.5,1.2-.7s.9-.2,1.3-.2.9,0,1.4.2c.4.2.8.4,1.2.7.4.3.6.7.8,1.2.2.5.3,1,.3,1.6s0,.9-.2,1.3-.3.8-.6,1.1c-.2.3-.5.5-.8.7s-.7.4-1,.5c-.4,0-.7.1-1.1.1s-.9,0-1.4-.2c-.4-.2-.8-.4-1.2-.7-.4-.3-.6-.7-.8-1.2-.2-.5-.3-1-.3-1.6h0ZM335.9,144.4c0,.5.1,1,.4,1.3s.6.4,1,.4.7-.1,1-.4.4-.7.4-1.3-.1-.9-.4-1.2-.6-.4-1-.4-.7.1-1,.4-.4.7-.4,1.2Z"/>
          <path class="cls-2" d="M345,142.8v-1.9h.9v-1.8h2.3v1.8h1.6v1.9h-1.6v2.7c0,.3,0,.5.1.6s.2.1.4.1.4,0,.6-.2l.8,1.5c-.5.4-1.1.6-1.9.6s-1.3-.2-1.7-.6c-.4-.4-.6-1-.6-1.7v-3h-.9,0Z"/>
          <path class="cls-2" d="M350.4,144.4c0-.6.1-1.1.3-1.6s.5-.9.9-1.2c.4-.3.8-.5,1.2-.7s.9-.2,1.3-.2.9,0,1.4.2c.4.2.8.4,1.2.7.4.3.6.7.8,1.2.2.5.3,1,.3,1.6s0,.9-.2,1.3-.3.8-.6,1.1c-.2.3-.5.5-.8.7s-.7.4-1,.5c-.4,0-.7.1-1.1.1s-.9,0-1.4-.2c-.4-.2-.8-.4-1.2-.7-.4-.3-.6-.7-.8-1.2-.2-.5-.3-1-.3-1.6h0ZM352.8,144.4c0,.5.1,1,.4,1.3s.6.4,1,.4.7-.1,1-.4.4-.7.4-1.3-.1-.9-.4-1.2-.6-.4-1-.4-.7.1-1,.4-.4.7-.4,1.2Z"/>
          <path class="cls-2" d="M361.8,148.9c0-.7.4-1.2,1.2-1.5-.3-.2-.5-.5-.5-.9s.2-.8.7-1c-.4-.2-.6-.5-.8-.9s-.3-.8-.3-1.2.1-1,.4-1.4.7-.7,1.1-.9c.5-.2.9-.3,1.5-.3h3.7v1.6h-1c.1.3.2.6.2.8,0,.8-.3,1.4-.8,1.9-.5.4-1.3.7-2.1.7s-.5.1-.5.3,0,.2.2.2h1.3c.8,0,1.4.2,1.9.6.4.4.6.9.6,1.5s-.3,1.3-.9,1.7c-.6.4-1.4.6-2.4.6h-.2c-1,0-1.8-.2-2.3-.5-.6-.3-.9-.8-.9-1.5v.2ZM363.8,148.7c0,.2,0,.3.3.4.2,0,.5.1.9.1h.3c.8,0,1.2-.2,1.2-.6s-.1-.4-.3-.5c-.2,0-.5-.1-.9-.1h-.3c-.8,0-1.2.2-1.2.6h0ZM364.1,143.4c0,.3,0,.5.3.7.2.2.4.3.7.3s.5,0,.7-.3.3-.4.3-.7,0-.5-.3-.6c-.2-.2-.4-.3-.7-.3s-.5,0-.7.3c-.2.2-.3.4-.3.6Z"/>
          <path class="cls-2" d="M369.1,140.9h2.3l1.4,3.4,1.3-3.4h2.2l-4.1,9.8h-2.2l1.6-4-2.6-5.8h.1Z"/>
          <path class="cls-2" d="M377.2,148v-7.1h2.3v.8c.5-.6,1.2-.9,2-.9s.8,0,1.2.3.6.4.8.7c.6-.7,1.3-1,2.2-1s1.5.2,2,.7.7,1.1.7,2v4.5h-2.3v-4c0-.4,0-.7-.3-.9s-.4-.3-.7-.3-.5,0-.7.2c-.2.1-.3.3-.5.6v4.4h-2.3v-4c0-.4,0-.7-.3-.9s-.4-.3-.8-.3-.9.3-1.1.8v4.4h-2.3,0Z"/>
        </g>
        <g>
          <path class="cls-2" d="M343.7,163.2c0-.5,0-1,.3-1.4.2-.4.4-.8.8-1,.3-.3.7-.5,1.1-.6s.8-.2,1.2-.2.8,0,1.2.2c.4.1.7.3,1.1.6.3.3.6.6.8,1s.3.9.3,1.4,0,.8-.2,1.2c-.1.4-.3.7-.5.9-.2.3-.5.5-.8.7s-.6.3-.9.4c-.3,0-.6.1-1,.1s-.8,0-1.2-.2c-.4-.1-.7-.3-1.1-.6-.3-.3-.6-.6-.8-1.1-.2-.4-.3-.9-.3-1.5h0ZM345.7,163.2c0,.5.1.9.4,1.1.2.3.5.4.9.4s.6-.1.9-.4c.2-.3.4-.6.4-1.1s-.1-.8-.4-1.1c-.2-.3-.5-.4-.9-.4s-.6.1-.9.4c-.2.3-.4.6-.4,1.1Z"/>
          <path class="cls-2" d="M351.4,166.4v-6.3h2v.7c.2-.3.3-.5.6-.6s.5-.2.8-.2c.5,0,.8.1,1.1.3l-.6,1.8c-.3-.2-.6-.3-.9-.3s-.4,0-.5.2c-.2.1-.3.2-.4.4v4h-2.1Z"/>
          <path class="cls-2" d="M359.4,163.2c0-.5,0-1,.2-1.5.2-.4.4-.8.7-1,.3-.3.6-.5.9-.6s.7-.2,1.1-.2c.6,0,1.1.2,1.5.5v-3.1h2v9.1h-1.9v-.6c-.5.4-1,.7-1.6.7s-.6,0-.8-.1c-.3,0-.5-.2-.8-.4-.2-.2-.5-.4-.6-.6s-.3-.6-.4-.9-.2-.8-.2-1.2h-.1ZM361.8,162.1c-.2.2-.3.6-.3,1.1s.1.9.3,1.1c.2.2.5.4.9.4s.6,0,.8-.3c.2-.2.3-.5.3-.8v-.8c0-.3-.1-.5-.3-.7-.2-.2-.5-.3-.8-.3s-.6.1-.9.4h0Z"/>
          <path class="cls-2" d="M366.9,163.2c0-.5,0-1,.3-1.4.2-.4.4-.8.8-1,.3-.3.7-.5,1.1-.6s.8-.2,1.2-.2.8,0,1.2.2c.4.1.7.3,1.1.6.3.3.6.6.8,1s.3.9.3,1.4,0,.8-.2,1.2c-.1.4-.3.7-.5.9-.2.3-.5.5-.8.7s-.6.3-.9.4c-.3,0-.6.1-1,.1s-.8,0-1.2-.2c-.4-.1-.7-.3-1.1-.6-.3-.3-.6-.6-.8-1.1-.2-.4-.3-.9-.3-1.5h0ZM369,163.2c0,.5.1.9.4,1.1.2.3.5.4.9.4s.6-.1.9-.4c.2-.3.4-.6.4-1.1s-.1-.8-.4-1.1c-.2-.3-.5-.4-.9-.4s-.6.1-.9.4c-.2.3-.4.6-.4,1.1Z"/>
          <path class="cls-2" d="M374.7,166.4v-6.3h2v.7c.4-.6,1-.9,1.8-.9s1.2.2,1.6.6.6,1,.6,1.8v4h-2v-3.6c0-.7-.3-1.1-1-1.1s-.4,0-.6.2c-.2.1-.3.3-.4.5v4h-2Z"/>
          <path class="cls-2" d="M381.6,160.5l.5-3h1.7l-.6,3h-1.6Z"/>
          <path class="cls-2" d="M384.6,161.7v-1.7h.8v-1.6h2v1.6h1.4v1.7h-1.4v2.4c0,.2,0,.4.1.5,0,0,.2.1.4.1s.3,0,.6-.2l.7,1.4c-.5.4-1,.5-1.7.5s-1.1-.2-1.5-.5-.6-.9-.6-1.6v-2.6h-.8Z"/>
        </g>
        <g>
          <path class="cls-2" d="M352.5,179.4v-3h1v.3c.2-.3.5-.4.9-.4s.6,0,.7.3.3.5.3.9v1.9h-1v-1.7c0-.3-.2-.5-.5-.5h-.3s-.2.1-.2.2v1.9h-1,.1Z"/>
          <path class="cls-2" d="M355.9,177.9c0-.2,0-.5.1-.7,0-.2.2-.4.4-.5s.3-.2.5-.3.4,0,.6,0h.6c.2,0,.3.2.5.3.1.1.3.3.4.5,0,.2.1.4.1.7v.6c0,.2-.1.3-.2.4s-.2.2-.4.3c-.1,0-.3.2-.4.2h-1.1c-.2,0-.3-.2-.5-.3-.1-.1-.3-.3-.4-.5,0-.2-.1-.4-.1-.7h-.1ZM356.8,177.9c0,.2,0,.4.2.5.1.1.3.2.4.2s.3,0,.4-.2c.1-.1.2-.3.2-.5s0-.4-.2-.5c-.1-.1-.2-.2-.4-.2s-.3,0-.4.2c-.1.1-.2.3-.2.5Z"/>
          <path class="cls-2" d="M359.5,179.4v-4.2h1v1.4c.2-.1.4-.2.7-.2h.5c.2,0,.3.2.4.3s.2.3.3.5.1.4.1.7v.6c0,.2-.1.3-.2.4l-.3.3c-.1,0-.2.1-.4.2h-.4c-.3,0-.6-.1-.8-.4v.3h-.9ZM360.5,178.1c0,.1,0,.3.1.4,0,0,.2.1.4.1s.3,0,.4-.2c.1-.1.2-.3.2-.5s0-.4-.2-.5c-.1-.1-.2-.2-.4-.2s-.3,0-.4.1c0,0-.1.2-.1.3v.4h0Z"/>
          <path class="cls-2" d="M362.9,177.9c0-.2,0-.5.1-.7,0-.2.2-.4.4-.5s.3-.2.5-.3.4,0,.6,0h.6c.2,0,.3.2.5.3.1.1.3.3.4.5,0,.2.1.4.1.7v.6c0,.2-.1.3-.2.4s-.2.2-.4.3c-.1,0-.3.2-.4.2h-1.1c-.2,0-.3-.2-.5-.3-.1-.1-.3-.3-.4-.5,0-.2-.1-.4-.1-.7h-.1ZM363.9,177.9c0,.2,0,.4.2.5.1.1.3.2.4.2s.3,0,.4-.2c.1-.1.2-.3.2-.5s0-.4-.2-.5c-.1-.1-.2-.2-.4-.2s-.3,0-.4.2c-.1.1-.2.3-.2.5Z"/>
          <path class="cls-2" d="M366.4,177.9c0-.3,0-.5.1-.7,0-.2.2-.4.3-.5s.3-.2.4-.3h.5c.3,0,.5,0,.7.2v-1.4h1v4.2h-.9v-.3c-.2.2-.5.3-.8.3h-.4c-.1,0-.2,0-.4-.2-.1,0-.2-.2-.3-.3,0-.1-.2-.3-.2-.4v-.6h0ZM367.5,177.4c-.1.1-.2.3-.2.5s0,.4.2.5c.1.1.2.2.4.2s.3,0,.4-.1c0,0,.1-.2.1-.4v-.4c0-.1,0-.3-.1-.3,0,0-.2-.1-.4-.1s-.3,0-.4.2h0Z"/>
          <path class="cls-2" d="M369.8,176.4h1l.6,1.4.5-1.4h.9l-1.7,4.1h-.9l.7-1.7-1.1-2.4Z"/>
          <path class="cls-2" d="M374.3,177.9c0-.2,0-.5.1-.7,0-.2.2-.4.3-.5s.3-.2.5-.3h.6c.4,0,.7,0,.9.3s.4.4.5.7l-.9.2c0-.2-.2-.4-.5-.4s-.3,0-.4.2-.2.3-.2.5,0,.4.2.5c.1.1.2.2.4.2s.2,0,.3-.1c0,0,.2-.2.2-.3l.9.3c-.1.3-.3.5-.5.7s-.6.2-.9.2h-.6c-.2,0-.3-.2-.5-.3-.1-.1-.3-.3-.3-.5s-.1-.4-.1-.7h0Z"/>
          <path class="cls-2" d="M377.6,178.5c0-.2,0-.4.2-.6.2-.1.4-.2.7-.3l.8-.2c0-.2-.2-.2-.4-.2s-.4.1-.5.3l-.9-.2c0-.3.2-.5.5-.7.2-.2.5-.2.9-.2s.8,0,1,.3c.2.2.4.5.4.8v2h-.9v-.3h0c-.2.2-.5.3-.8.3s-.5,0-.7-.3c-.2-.2-.3-.4-.3-.7h0ZM378.5,178.4v.2h.2c.1,0,.2,0,.4-.1h.2v-.5h-.4c-.2.2-.3.2-.3.2v.2h-.1Z"/>
          <path class="cls-2" d="M381,179.4v-3h1v.3c0-.1.2-.2.3-.3.1,0,.2-.1.4-.1s.4,0,.5.1l-.3.8c-.1,0-.3-.1-.4-.1h-.3l-.2.2v1.9h-1v.2Z"/>
          <path class="cls-2" d="M383.2,177.9c0-.2,0-.5.1-.7,0-.2.2-.4.3-.5s.3-.2.5-.3.4-.1.6-.1c.4,0,.8.1,1,.4.3.3.4.6.4,1.1v.3h-2c0,.2,0,.3.2.4.1,0,.3.1.5.1.3,0,.5-.1.7-.3l.6.4c-.3.5-.7.7-1.4.7s-.4,0-.6,0-.4-.2-.5-.3c-.1-.1-.3-.3-.3-.5s-.1-.4-.1-.7h0ZM384.1,177.5h1c0-.1,0-.2-.2-.3,0,0-.2-.1-.4-.1s-.2,0-.3.1c-.1,0-.2.2-.2.3h.1Z"/>
          <path class="cls-2" d="M386.4,178.6l.8-.2c0,.3.3.4.5.4h.3s.1,0,.1-.2,0-.1-.1-.2c0,0-.2,0-.4-.1-.3,0-.6-.2-.8-.3-.2-.1-.3-.4-.3-.6s.1-.5.4-.7c.2-.2.6-.3,1-.3s.6,0,.8.2c.2.1.3.3.4.6l-.8.2c0-.2-.2-.3-.4-.3h-.3v.2q0,.1.1.2c.1.1.2,0,.4,0,.7.1,1.1.4,1.1.9s-.1.5-.4.7c-.2.2-.6.3-1,.3-.8,0-1.2-.3-1.3-.9h-.1Z"/>
        </g>
      </g>
    </g>
  </g>
</svg>